<svg id="Ebene_1" data-name="Ebene 1" xmlns="http://www.w3.org/2000/svg" viewBox="0 0 263 106.3"><defs><style>.cls-1,.cls-10,.cls-11,.cls-12,.cls-2,.cls-3,.cls-9{fill:none;stroke-linecap:round;}.cls-1{stroke:#61ffc5;}.cls-1,.cls-2,.cls-3{stroke-width:7px;}.cls-2{stroke:#ffa55f;}.cls-10,.cls-3{stroke:#2d96ff;}.cls-4{fill:#61ffc5;}.cls-5{fill:#ff6161;}.cls-6{isolation:isolate;}.cls-7{fill:#ffa55f;}.cls-8{fill:#2d96ff;}.cls-9{stroke:#e5fffc;}.cls-10,.cls-9{stroke-width:2px;}.cls-11,.cls-12{stroke:#5a7980;stroke-width:1.5px;}.cls-12{stroke-linejoin:round;}</style></defs><line id="Linie_93" data-name="Linie 93" class="cls-1" x1="3.5" y1="38.5" x2="98.5" y2="38.5"/><line id="Linie_90" data-name="Linie 90" class="cls-2" x1="113.5" y1="38.5" x2="151.5" y2="38.5"/><line id="Linie_91" data-name="Linie 91" class="cls-3" x1="113.5" y1="21.5" x2="174.5" y2="21.5"/><line id="Linie_92" data-name="Linie 92" class="cls-1" x1="166.5" y1="38.5" x2="258.5" y2="38.5"/><circle id="Ellipse_97" data-name="Ellipse 97" class="cls-4" cx="4" cy="26" r="4"/><circle id="Ellipse_98" data-name="Ellipse 98" class="cls-5" cx="106" cy="52" r="4"/><circle id="Ellipse_99" data-name="Ellipse 99" class="cls-4" cx="159" cy="4" r="4"/><circle id="Ellipse_100" data-name="Ellipse 100" class="cls-5" cx="259" cy="52" r="4"/><g id="_8_Stunden_Arbeitszeit" data-name=" 8 Stunden Arbeitszeit" class="cls-6"><g class="cls-6"><path class="cls-4" d="M133.14,300.29a2.46,2.46,0,0,1-1-.87,2.36,2.36,0,0,1-.36-1.29,1.85,1.85,0,0,1,.35-1.1,2.65,2.65,0,0,1,1-.82v.15a2.29,2.29,0,0,1-.76-.65,1.46,1.46,0,0,1-.23-.82,2.15,2.15,0,0,1,.32-1.17,2.23,2.23,0,0,1,.88-.81,2.76,2.76,0,0,1,1.27-.28,2.86,2.86,0,0,1,1.3.28,2.17,2.17,0,0,1,1.21,2,1.46,1.46,0,0,1-.23.82,2.14,2.14,0,0,1-.77.65v-.15a2.73,2.73,0,0,1,1.05.82,1.9,1.9,0,0,1,.33,1.1,2.36,2.36,0,0,1-.36,1.29,2.56,2.56,0,0,1-1,.87,3.6,3.6,0,0,1-1.51.3A3.51,3.51,0,0,1,133.14,300.29Zm2.63-1.29a1,1,0,0,0,.42-.87,1.14,1.14,0,0,0-.41-.91,1.81,1.81,0,0,0-1.15-.33,1.74,1.74,0,0,0-1.12.33,1.12,1.12,0,0,0-.42.91,1,1,0,0,0,.42.87,1.74,1.74,0,0,0,1.12.32A1.8,1.8,0,0,0,135.77,299Zm-.2-3.36a.91.91,0,0,0,.34-.75.9.9,0,0,0-.34-.73,1.52,1.52,0,0,0-.94-.27,1.4,1.4,0,0,0-.9.28.88.88,0,0,0-.36.72.91.91,0,0,0,.35.74,1.38,1.38,0,0,0,.91.28A1.52,1.52,0,0,0,135.57,295.64Z" transform="translate(-118.05 -196.45)"/><path class="cls-4" d="M142.62,300a2.64,2.64,0,0,1-1.13-1.66,3,3,0,0,1,0-.57h1.4a1.28,1.28,0,0,0,.49,1.11,2.22,2.22,0,0,0,1.42.4,2.54,2.54,0,0,0,1.33-.31.92.92,0,0,0,.5-.81,1,1,0,0,0-.21-.65,1.54,1.54,0,0,0-.68-.44,7.55,7.55,0,0,0-1.25-.33,4.35,4.35,0,0,1-2.07-.85,2,2,0,0,1-.66-1.62,2.08,2.08,0,0,1,.81-1.72,3.42,3.42,0,0,1,2.17-.63,3.54,3.54,0,0,1,2,.51,2.64,2.64,0,0,1,1,1.6l-1.24.41a1.72,1.72,0,0,0-.62-.93,2.09,2.09,0,0,0-1.16-.27,2.17,2.17,0,0,0-1.21.28.9.9,0,0,0-.43.78,1,1,0,0,0,.2.61,1.41,1.41,0,0,0,.6.41,5.06,5.06,0,0,0,1.12.3,4.84,4.84,0,0,1,2.24.91,2.08,2.08,0,0,1,.72,1.66,2,2,0,0,1-.4,1.26,2.65,2.65,0,0,1-1.12.85,4.21,4.21,0,0,1-1.64.3A3.87,3.87,0,0,1,142.62,300Z" transform="translate(-118.05 -196.45)"/><path class="cls-4" d="M149.85,300.11a1.92,1.92,0,0,1-.46-1.38v-3.06h-1v-1.22a.94.94,0,0,0,.73-.2.88.88,0,0,0,.29-.69v-1h1.33v1.88h1.12v1.22h-1.12v2.82a1.29,1.29,0,0,0,.12.65.44.44,0,0,0,.4.18,1,1,0,0,0,.34-.06.62.62,0,0,0,.27-.17l.61,1.1a2.45,2.45,0,0,1-1.38.4A1.71,1.71,0,0,1,149.85,300.11Z" transform="translate(-118.05 -196.45)"/><path class="cls-4" d="M157,299.42l.34.21,0,0v0a2.74,2.74,0,0,1-.62.65,1.92,1.92,0,0,1-1.1.25,2.17,2.17,0,0,1-1.72-.71,2.78,2.78,0,0,1-.64-1.93v-3.5h1.39v3a2.83,2.83,0,0,0,.28,1.4,1,1,0,0,0,.86.45,1.11,1.11,0,0,0,.94-.4,1.94,1.94,0,0,0,.31-1.21v-3.26h1.39v6h-1.16Z" transform="translate(-118.05 -196.45)"/><path class="cls-4" d="M161.1,295.47l-.33-.2,0,0,0-.05a2.31,2.31,0,0,1,.58-.63,1.87,1.87,0,0,1,1.08-.25,2.18,2.18,0,0,1,1.73.71,2.78,2.78,0,0,1,.64,1.93v3.5h-1.4v-3a2.72,2.72,0,0,0-.28-1.4.93.93,0,0,0-.85-.45,1.11,1.11,0,0,0-.94.4,1.94,1.94,0,0,0-.31,1.21v3.26h-1.39v-6h1.16Z" transform="translate(-118.05 -196.45)"/><path class="cls-4" d="M172,300.51H170.8l-.18-.94.18.09a2.51,2.51,0,0,1-.88.71,2.43,2.43,0,0,1-1.1.28,2.83,2.83,0,0,1-1.52-.42,2.87,2.87,0,0,1-1.06-1.15,3.6,3.6,0,0,1,0-3.26,2.87,2.87,0,0,1,1.06-1.15,2.83,2.83,0,0,1,1.52-.42,2.34,2.34,0,0,1,1.24.32,1.73,1.73,0,0,1,.77.9h-.26v-3.62H172Zm-1.85-1.71a2.21,2.21,0,0,0,0-2.7,1.46,1.46,0,0,0-1.17-.52,1.63,1.63,0,0,0-.87.24,1.67,1.67,0,0,0-.61.68,2.25,2.25,0,0,0,0,1.9,1.67,1.67,0,0,0,.61.68,1.63,1.63,0,0,0,.87.24A1.46,1.46,0,0,0,170.11,298.8Z" transform="translate(-118.05 -196.45)"/><path class="cls-4" d="M174.71,298.6a1.38,1.38,0,0,0,.54.48,1.55,1.55,0,0,0,.71.17,1.63,1.63,0,0,0,.92-.25,1.29,1.29,0,0,0,.55-.7l1.29.43a2.7,2.7,0,0,1-1.07,1.38,3.06,3.06,0,0,1-1.69.48,2.78,2.78,0,0,1-1.5-.42,3,3,0,0,1-1.05-1.14,3.49,3.49,0,0,1-.38-1.62,3.31,3.31,0,0,1,.38-1.57,3.06,3.06,0,0,1,1.05-1.12,3,3,0,0,1,3,0,2.88,2.88,0,0,1,1.05,1.11,3.52,3.52,0,0,1,.39,1.59v.46h-4.47A1.9,1.9,0,0,0,174.71,298.6ZM175,296a1.69,1.69,0,0,0-.55.86h3a1.63,1.63,0,0,0-.55-.86,1.6,1.6,0,0,0-1.92,0Z" transform="translate(-118.05 -196.45)"/><path class="cls-4" d="M181.33,295.47l-.33-.2,0,0s0,0,0-.05a2.2,2.2,0,0,1,.59-.63,1.85,1.85,0,0,1,1.08-.25,2.17,2.17,0,0,1,1.72.71,2.78,2.78,0,0,1,.64,1.93v3.5H183.7v-3a2.83,2.83,0,0,0-.28-1.4,1,1,0,0,0-.86-.45,1.11,1.11,0,0,0-.94.4,1.94,1.94,0,0,0-.31,1.21v3.26h-1.39v-6h1.16Z" transform="translate(-118.05 -196.45)"/><path class="cls-4" d="M192.12,292.05h1.49l3.44,8.4h-1.57l-.95-2.33h-3.32l-1,2.33h-1.57Zm0,0h1.49l3.44,8.4h-1.57l-.95-2.33h-3.32l-1,2.33h-1.57Zm.75,1.85-1.16,2.84H194Zm0,0-1.16,2.84H194Z" transform="translate(-118.05 -196.45)"/><path class="cls-4" d="M199.12,295.25l0-.06c.11-.16.22-.29.32-.41a1.38,1.38,0,0,1,.5-.31,2.3,2.3,0,0,1,.84-.14h.24a.39.39,0,0,1,.15,0v1.27a2.13,2.13,0,0,0-.55-.07,1.23,1.23,0,0,0-.7.18,1.12,1.12,0,0,0-.42.53,2.6,2.6,0,0,0-.13.9v3.26H198v-6h1.17l.24,1-.36-.11Z" transform="translate(-118.05 -196.45)"/><path class="cls-4" d="M202.29,291.91h1.39v3.62l-.23-.1a2.14,2.14,0,0,1,.5-.58,2.65,2.65,0,0,1,.69-.4,2.16,2.16,0,0,1,.79-.14,2.83,2.83,0,0,1,1.52.42,3,3,0,0,1,1.06,1.12,3.54,3.54,0,0,1,0,3.19,3,3,0,0,1-1.06,1.13,2.83,2.83,0,0,1-1.52.42,2.37,2.37,0,0,1-1.12-.29,2.53,2.53,0,0,1-.87-.73l.19,0-.18.92h-1.16Zm3.9,7.11a1.79,1.79,0,0,0,.6-.65,2,2,0,0,0,.21-.92,1.9,1.9,0,0,0-.22-.92,1.73,1.73,0,0,0-.61-.65,1.57,1.57,0,0,0-.86-.24,1.67,1.67,0,0,0-.85.23,1.63,1.63,0,0,0-.58.64,2.31,2.31,0,0,0,0,1.88,1.63,1.63,0,0,0,.58.64,1.67,1.67,0,0,0,.85.23A1.64,1.64,0,0,0,206.19,299Z" transform="translate(-118.05 -196.45)"/><path class="cls-4" d="M211,298.6a1.38,1.38,0,0,0,.54.48,1.55,1.55,0,0,0,.71.17,1.63,1.63,0,0,0,.92-.25,1.29,1.29,0,0,0,.55-.7l1.29.43a2.7,2.7,0,0,1-1.07,1.38,3.06,3.06,0,0,1-1.69.48,2.78,2.78,0,0,1-1.5-.42,3,3,0,0,1-1-1.14,3.49,3.49,0,0,1-.38-1.62,3.31,3.31,0,0,1,.38-1.57,3.06,3.06,0,0,1,1-1.12,2.85,2.85,0,0,1,4,1.1,3.28,3.28,0,0,1,.39,1.59v.46h-4.46A1.9,1.9,0,0,0,211,298.6Zm.29-2.63a1.69,1.69,0,0,0-.55.86h3a1.63,1.63,0,0,0-.55-.86,1.54,1.54,0,0,0-1-.32A1.52,1.52,0,0,0,211.24,296Z" transform="translate(-118.05 -196.45)"/><path class="cls-4" d="M216.15,293.33a.85.85,0,0,1-.26-.62.82.82,0,0,1,.26-.62.85.85,0,0,1,.62-.26.87.87,0,0,1,.62.26.82.82,0,0,1,.26.62.85.85,0,0,1-.26.62.87.87,0,0,1-.62.26A.85.85,0,0,1,216.15,293.33Zm1.31,1.12v6h-1.39v-6Z" transform="translate(-118.05 -196.45)"/><path class="cls-4" d="M219.73,300.11a1.92,1.92,0,0,1-.47-1.38v-3.06h-1v-1.22a1,1,0,0,0,.74-.2.88.88,0,0,0,.28-.69v-1h1.34v1.88h1.11v1.22h-1.11v2.82a1.29,1.29,0,0,0,.12.65.43.43,0,0,0,.39.18.93.93,0,0,0,.34-.06.62.62,0,0,0,.27-.17l.62,1.1a2.45,2.45,0,0,1-1.38.4A1.68,1.68,0,0,1,219.73,300.11Z" transform="translate(-118.05 -196.45)"/><path class="cls-4" d="M223.57,300l0,0,0,0a3.15,3.15,0,0,1-.52-.75,1.94,1.94,0,0,1-.15-1h1.36a.93.93,0,0,0,.25.79,1.25,1.25,0,0,0,.89.29,1.63,1.63,0,0,0,.79-.16.48.48,0,0,0,.3-.43.45.45,0,0,0-.14-.35,1.18,1.18,0,0,0-.45-.21l-1.1-.25-.07,0h-.06a2.12,2.12,0,0,1-1.2-.58,1.62,1.62,0,0,1-.38-1.12,1.68,1.68,0,0,1,.62-1.36,3,3,0,0,1,3.21-.08,2.38,2.38,0,0,1,.79,1.37l-1.21.4a1.36,1.36,0,0,0-.39-.73,1.12,1.12,0,0,0-.72-.2,1.19,1.19,0,0,0-.7.17.51.51,0,0,0-.25.45.62.62,0,0,0,.12.42,1,1,0,0,0,.45.21l.17,0a15,15,0,0,1,1.66.46,1.63,1.63,0,0,1,.76.5,1.46,1.46,0,0,1,.23.9,1.6,1.6,0,0,1-.31,1,2,2,0,0,1-.85.67,3,3,0,0,1-1.22.24A2.78,2.78,0,0,1,223.57,300Z" transform="translate(-118.05 -196.45)"/><path class="cls-4" d="M230,299.18h3.24v1.27h-4.64v-1.09l3.21-4v.39h-3.12v-1.27h4.52v1.09l-3.21,4Z" transform="translate(-118.05 -196.45)"/><path class="cls-4" d="M235.54,298.6a1.38,1.38,0,0,0,.54.48,1.52,1.52,0,0,0,.71.17,1.63,1.63,0,0,0,.92-.25,1.34,1.34,0,0,0,.55-.7l1.28.43a2.68,2.68,0,0,1-1.06,1.38,3.06,3.06,0,0,1-1.69.48,2.73,2.73,0,0,1-1.5-.42,3,3,0,0,1-1-1.14,3.37,3.37,0,0,1-.38-1.62,3.2,3.2,0,0,1,.38-1.57,3.06,3.06,0,0,1,1-1.12,2.73,2.73,0,0,1,1.5-.41,2.82,2.82,0,0,1,1.49.4,2.85,2.85,0,0,1,1,1.11,3.28,3.28,0,0,1,.39,1.59v.46h-4.46A1.75,1.75,0,0,0,235.54,298.6Zm.29-2.63a1.71,1.71,0,0,0-.56.86h3a1.63,1.63,0,0,0-.55-.86,1.56,1.56,0,0,0-1-.32A1.52,1.52,0,0,0,235.83,296Z" transform="translate(-118.05 -196.45)"/><path class="cls-4" d="M240.74,293.33a.85.85,0,0,1-.26-.62.82.82,0,0,1,.26-.62.85.85,0,0,1,.62-.26.87.87,0,0,1,.62.26.81.81,0,0,1,.25.62.84.84,0,0,1-.25.62.87.87,0,0,1-.62.26A.85.85,0,0,1,240.74,293.33Zm1.31,1.12v6h-1.39v-6Z" transform="translate(-118.05 -196.45)"/><path class="cls-4" d="M244.31,300.11a2,2,0,0,1-.46-1.38v-3.06h-1v-1.22a.94.94,0,0,0,.73-.2.85.85,0,0,0,.29-.69v-1h1.33v1.88h1.12v1.22h-1.12v2.82a1.29,1.29,0,0,0,.12.65.45.45,0,0,0,.4.18,1,1,0,0,0,.34-.06.62.62,0,0,0,.27-.17l.61,1.1a2.4,2.4,0,0,1-1.38.4A1.71,1.71,0,0,1,244.31,300.11Z" transform="translate(-118.05 -196.45)"/></g></g><g id="_23_Minuten_Pause" data-name=" 23 Minuten Pause" class="cls-6"><g class="cls-6"><path class="cls-7" d="M280.76,297.8l-.19.09c-.31.16-.53.3-.69.4a1.45,1.45,0,0,0-.4.38,1.16,1.16,0,0,0-.22.52H283v1.32h-5.17v-.77a2.75,2.75,0,0,1,.31-1.35,2.69,2.69,0,0,1,.77-.92,6.38,6.38,0,0,1,1.06-.66l.48-.26a5.94,5.94,0,0,0,.66-.41,1.9,1.9,0,0,0,.41-.45,1.09,1.09,0,0,0,.15-.56,1.13,1.13,0,0,0-.3-.83,1.11,1.11,0,0,0-.82-.31,1.21,1.21,0,0,0-.78.25,1.33,1.33,0,0,0-.44.59,1.58,1.58,0,0,0-.11.66h-1.38a2.57,2.57,0,0,1,.25-1.24,2.92,2.92,0,0,1,.93-1.14,2.49,2.49,0,0,1,1.52-.46,2.55,2.55,0,0,1,1.84.66,2.32,2.32,0,0,1,.68,1.76,2.11,2.11,0,0,1-.23,1,2.88,2.88,0,0,1-.59.75,4.86,4.86,0,0,1-.82.61l-.23.15-.23.12A.76.76,0,0,1,280.76,297.8Z" transform="translate(-118.05 -196.45)"/><path class="cls-7" d="M285.8,298.93a1.45,1.45,0,0,0,.95.28,1.28,1.28,0,0,0,.9-.33A1.09,1.09,0,0,0,288,298a.91.91,0,0,0-.19-.57,1.5,1.5,0,0,0-.53-.42,1.69,1.69,0,0,0-.72-.15H286v-1h.54a1.47,1.47,0,0,0,.93-.26.86.86,0,0,0,.33-.72.79.79,0,0,0-.32-.69,1.23,1.23,0,0,0-.76-.24,1.36,1.36,0,0,0-.82.21.64.64,0,0,0-.27.63h-1.39a2.15,2.15,0,0,1,.31-1.13,1.89,1.89,0,0,1,.86-.76,3,3,0,0,1,1.31-.27,2.71,2.71,0,0,1,1.22.29,2.58,2.58,0,0,1,.91.79,1.92,1.92,0,0,1,.34,1.08,1.8,1.8,0,0,1-.16.74,1.65,1.65,0,0,1-.43.6,1.24,1.24,0,0,1-.62.3v-.1a1.44,1.44,0,0,1,.69.29,1.77,1.77,0,0,1,.51.63,1.74,1.74,0,0,1,.19.8,2.36,2.36,0,0,1-.35,1.23,2.62,2.62,0,0,1-1,.92,2.72,2.72,0,0,1-1.35.35,2.92,2.92,0,0,1-1.38-.31,2.32,2.32,0,0,1-.93-.85,2,2,0,0,1-.26-1.22h1.33A.82.82,0,0,0,285.8,298.93Z" transform="translate(-118.05 -196.45)"/><path class="cls-7" d="M293.75,292.05h1.73l2.9,6.13h-.22l2.86-6.13h1.74v8.4h-1.44v-6.18h.2L299,299.55h-1.46L295,294.27h.2v6.18h-1.43Z" transform="translate(-118.05 -196.45)"/><path class="cls-7" d="M304.08,293.33a.84.84,0,0,1-.25-.62.81.81,0,0,1,.25-.62.87.87,0,0,1,1.24,0,.82.82,0,0,1,.26.62.88.88,0,0,1-1.5.62Zm1.32,1.12v6H304v-6Z" transform="translate(-118.05 -196.45)"/><path class="cls-7" d="M308.25,295.47l-.33-.2,0,0s0,0,0-.05a2.35,2.35,0,0,1,.59-.63,1.85,1.85,0,0,1,1.08-.25,2.17,2.17,0,0,1,1.72.71A2.78,2.78,0,0,1,312,297v3.5h-1.39v-3a2.71,2.71,0,0,0-.29-1.4.93.93,0,0,0-.85-.45,1.11,1.11,0,0,0-.94.4,1.94,1.94,0,0,0-.31,1.21v3.26h-1.39v-6H308Z" transform="translate(-118.05 -196.45)"/><path class="cls-7" d="M316.93,299.42l.33.21,0,0v0a3,3,0,0,1-.62.65,1.92,1.92,0,0,1-1.1.25,2.17,2.17,0,0,1-1.72-.71,2.78,2.78,0,0,1-.64-1.93v-3.5h1.39v3a2.72,2.72,0,0,0,.28,1.4,1,1,0,0,0,.86.45,1.11,1.11,0,0,0,.94-.4,1.94,1.94,0,0,0,.31-1.21v-3.26h1.39v6h-1.16Z" transform="translate(-118.05 -196.45)"/><path class="cls-7" d="M320.47,300.11a2,2,0,0,1-.46-1.38v-3.06h-1v-1.22a1,1,0,0,0,.74-.2.88.88,0,0,0,.28-.69v-1h1.34v1.88h1.11v1.22h-1.11v2.82a1.29,1.29,0,0,0,.12.65.42.42,0,0,0,.39.18.93.93,0,0,0,.34-.06.62.62,0,0,0,.27-.17l.61,1.1a2.4,2.4,0,0,1-1.38.4A1.71,1.71,0,0,1,320.47,300.11Z" transform="translate(-118.05 -196.45)"/><path class="cls-7" d="M325.14,298.6a1.38,1.38,0,0,0,.54.48,1.51,1.51,0,0,0,.7.17,1.64,1.64,0,0,0,.93-.25,1.34,1.34,0,0,0,.55-.7l1.28.43a2.68,2.68,0,0,1-1.06,1.38,3.07,3.07,0,0,1-1.7.48,2.72,2.72,0,0,1-1.49-.42,3,3,0,0,1-1.05-1.14,3.37,3.37,0,0,1-.38-1.62,3.2,3.2,0,0,1,.38-1.57,3.06,3.06,0,0,1,1.05-1.12,2.72,2.72,0,0,1,1.49-.41,2.79,2.79,0,0,1,2.54,1.51,3.52,3.52,0,0,1,.39,1.59v.46h-4.46A1.75,1.75,0,0,0,325.14,298.6Zm.29-2.63a1.71,1.71,0,0,0-.56.86h3a1.59,1.59,0,0,0-.56-.86,1.59,1.59,0,0,0-1.91,0Z" transform="translate(-118.05 -196.45)"/><path class="cls-7" d="M331.76,295.47l-.34-.2,0,0s0,0,0-.05a2.31,2.31,0,0,1,.58-.63,1.87,1.87,0,0,1,1.08-.25,2.18,2.18,0,0,1,1.73.71,2.83,2.83,0,0,1,.64,1.93v3.5h-1.4v-3a2.72,2.72,0,0,0-.28-1.4.93.93,0,0,0-.85-.45,1.11,1.11,0,0,0-.94.4,1.94,1.94,0,0,0-.31,1.21v3.26h-1.4v-6h1.17Z" transform="translate(-118.05 -196.45)"/><path class="cls-7" d="M344.31,292.37a2.43,2.43,0,0,1,.9.9,2.59,2.59,0,0,1,.33,1.3,2.53,2.53,0,0,1-.33,1.29,2.43,2.43,0,0,1-.9.9,2.53,2.53,0,0,1-1.29.33H341.4v3.36H340v-8.4H343A2.62,2.62,0,0,1,344.31,292.37Zm-.43,3.07a1.28,1.28,0,0,0,0-1.74,1.25,1.25,0,0,0-.9-.33H341.4v2.4H343A1.25,1.25,0,0,0,343.88,295.44Z" transform="translate(-118.05 -196.45)"/><path class="cls-7" d="M351.33,299.16a.22.22,0,0,0,.15.15,1.2,1.2,0,0,0,.31,0h.08v1.12h-.65a1.23,1.23,0,0,1-.78-.27,1.26,1.26,0,0,1-.45-.74l.34,0a1.36,1.36,0,0,1-.63.8,2,2,0,0,1-1.1.31,3,3,0,0,1-1.27-.25,2,2,0,0,1-.85-.72,2,2,0,0,1-.3-1.08,1.45,1.45,0,0,1,.59-1.26,2.91,2.91,0,0,1,1.42-.51,7.18,7.18,0,0,1,1.73,0v-.38a.66.66,0,0,0-.13-.36,1,1,0,0,0-.4-.28,1.58,1.58,0,0,0-.61-.11,1.3,1.3,0,0,0-.7.2,1,1,0,0,0-.43.56l-1.24-.4a2.16,2.16,0,0,1,.84-1.25,2.51,2.51,0,0,1,1.54-.47,2.71,2.71,0,0,1,1.38.33,2.32,2.32,0,0,1,.83.78,1.68,1.68,0,0,1,.27.82v2.51A1,1,0,0,0,351.33,299.16ZM348.17,298c-.41.09-.62.28-.62.57a.72.72,0,0,0,.58.75,1.67,1.67,0,0,0,1.19-.14.87.87,0,0,0,.6-.78V298A4.83,4.83,0,0,0,348.17,298Z" transform="translate(-118.05 -196.45)"/><path class="cls-7" d="M356.47,299.42l.33.21,0,0v0a3,3,0,0,1-.62.65,1.92,1.92,0,0,1-1.1.25,2.17,2.17,0,0,1-1.72-.71,2.78,2.78,0,0,1-.64-1.93v-3.5h1.39v3a2.72,2.72,0,0,0,.28,1.4,1,1,0,0,0,.86.45,1.11,1.11,0,0,0,.94-.4,1.94,1.94,0,0,0,.31-1.21v-3.26h1.39v6H356.7Z" transform="translate(-118.05 -196.45)"/><path class="cls-7" d="M359.73,300l0,0,0,0a2.93,2.93,0,0,1-.53-.75,1.94,1.94,0,0,1-.15-1h1.36a.93.93,0,0,0,.25.79,1.25,1.25,0,0,0,.89.29,1.63,1.63,0,0,0,.79-.16.48.48,0,0,0,.3-.43.45.45,0,0,0-.14-.35,1.18,1.18,0,0,0-.45-.21l-1.1-.25-.07,0h-.06a2.12,2.12,0,0,1-1.2-.58,1.61,1.61,0,0,1-.37-1.12,1.67,1.67,0,0,1,.61-1.36,2.54,2.54,0,0,1,1.65-.51,2.51,2.51,0,0,1,1.56.43,2.44,2.44,0,0,1,.8,1.37l-1.22.4a1.36,1.36,0,0,0-.39-.73,1.12,1.12,0,0,0-.72-.2,1.19,1.19,0,0,0-.7.17.51.51,0,0,0-.25.45.62.62,0,0,0,.12.42,1,1,0,0,0,.45.21l.17,0a16,16,0,0,1,1.67.46,1.65,1.65,0,0,1,.75.5,1.46,1.46,0,0,1,.24.9,1.61,1.61,0,0,1-.32,1,2,2,0,0,1-.85.67,3,3,0,0,1-1.22.24A2.78,2.78,0,0,1,359.73,300Z" transform="translate(-118.05 -196.45)"/><path class="cls-7" d="M366.51,298.6a1.49,1.49,0,0,0,1.25.65,1.6,1.6,0,0,0,.92-.25,1.36,1.36,0,0,0,.56-.7l1.28.43a2.7,2.7,0,0,1-1.07,1.38,3,3,0,0,1-1.69.48,2.72,2.72,0,0,1-1.49-.42,2.89,2.89,0,0,1-1-1.14,3.37,3.37,0,0,1-.39-1.62,3.21,3.21,0,0,1,.39-1.57,2.9,2.9,0,0,1,1-1.12,2.72,2.72,0,0,1,1.49-.41,2.82,2.82,0,0,1,2.54,1.51,3.52,3.52,0,0,1,.39,1.59v.46h-4.47A1.9,1.9,0,0,0,366.51,298.6Zm.3-2.63a1.64,1.64,0,0,0-.56.86h3a1.57,1.57,0,0,0-.55-.86,1.52,1.52,0,0,0-1-.32A1.49,1.49,0,0,0,366.81,296Z" transform="translate(-118.05 -196.45)"/></g></g><g id="_30" data-name=" 30" class="cls-6"><g class="cls-6"><path class="cls-8" d="M279.2,282.93a1.45,1.45,0,0,0,.95.28,1.28,1.28,0,0,0,.9-.33,1.09,1.09,0,0,0,.36-.84,1,1,0,0,0-.19-.57,1.46,1.46,0,0,0-.52-.42,1.8,1.8,0,0,0-.73-.15h-.55v-1H280a1.45,1.45,0,0,0,.93-.26.86.86,0,0,0,.33-.72.79.79,0,0,0-.32-.69,1.23,1.23,0,0,0-.76-.24,1.38,1.38,0,0,0-.82.21.66.66,0,0,0-.28.63h-1.37a2.14,2.14,0,0,1,.29-1.13,2,2,0,0,1,.87-.76,3,3,0,0,1,1.31-.27,2.66,2.66,0,0,1,1.21.29,2.53,2.53,0,0,1,.92.79,1.84,1.84,0,0,1,.34,1.08,1.8,1.8,0,0,1-.16.74,1.54,1.54,0,0,1-.43.6,1.24,1.24,0,0,1-.62.3v-.1a1.44,1.44,0,0,1,.69.29,1.77,1.77,0,0,1,.51.63,1.88,1.88,0,0,1,.19.8,2.36,2.36,0,0,1-.35,1.23,2.62,2.62,0,0,1-.95.92,2.72,2.72,0,0,1-1.35.35,2.92,2.92,0,0,1-1.38-.31,2.32,2.32,0,0,1-.93-.85,2,2,0,0,1-.26-1.22h1.33A.82.82,0,0,0,279.2,282.93Z" transform="translate(-118.05 -196.45)"/><path class="cls-8" d="M288.85,277.18a3.59,3.59,0,0,1,1.15,1.46,4.93,4.93,0,0,1,.41,2,4.77,4.77,0,0,1-.41,2,3.37,3.37,0,0,1-1.14,1.4,2.82,2.82,0,0,1-1.64.51,2.92,2.92,0,0,1-1.7-.52,3.42,3.42,0,0,1-1.18-1.41,4.49,4.49,0,0,1-.44-2,4.62,4.62,0,0,1,.44-2,3.68,3.68,0,0,1,1.2-1.46,2.85,2.85,0,0,1,1.68-.54A2.74,2.74,0,0,1,288.85,277.18Zm-2.63,1.17a2.66,2.66,0,0,0-.75,1,3.12,3.12,0,0,0-.28,1.31,3.17,3.17,0,0,0,.27,1.29,2.39,2.39,0,0,0,.74,1,1.63,1.63,0,0,0,1,.36,1.5,1.5,0,0,0,1-.34,2.52,2.52,0,0,0,.68-.95,3.34,3.34,0,0,0,.25-1.32,3.47,3.47,0,0,0-.26-1.33,2.56,2.56,0,0,0-.7-1,1.4,1.4,0,0,0-.93-.37A1.56,1.56,0,0,0,286.22,278.35Z" transform="translate(-118.05 -196.45)"/></g></g><line id="Linie_94" data-name="Linie 94" class="cls-9" x1="159" y1="105.3" x2="172" y2="96.88"/><line id="Linie_95" data-name="Linie 95" class="cls-10" x1="159" y1="104.3" x2="172" y2="95.88"/><line id="Linie_96" data-name="Linie 96" class="cls-11" x1="139.83" y1="99.94" x2="147.22" y2="99.94"/><path id="Pfad_70" data-name="Pfad 70" class="cls-12" d="M263.52,292.84l3.15,3.62-3.15,3.6" transform="translate(-118.05 -196.45)"/></svg>