<svg xmlns="http://www.w3.org/2000/svg" viewBox="0 0 263 106.3"><defs><style>.cls-1,.cls-10,.cls-11,.cls-12,.cls-2,.cls-3,.cls-9{fill:none;stroke-linecap:round;}.cls-1{stroke:#61ffc5;}.cls-1,.cls-2,.cls-3{stroke-width:7px;}.cls-2{stroke:#ffa55f;}.cls-10,.cls-3{stroke:#2d96ff;}.cls-4{fill:#61ffc5;}.cls-5{fill:#ff6161;}.cls-6{isolation:isolate;}.cls-7{fill:#ffa55f;}.cls-8{fill:#2d96ff;}.cls-9{stroke:#e5fffc;}.cls-10,.cls-9{stroke-width:2px;}.cls-11,.cls-12{stroke:#5a7980;stroke-width:1.5px;}.cls-12{stroke-linejoin:round;}</style></defs><g id="Ebene_2" data-name="Ebene 2"><g id="Ebene_1-2" data-name="Ebene 1"><line id="Linie_93" data-name="Linie 93" class="cls-1" x1="3.5" y1="38.5" x2="98.5" y2="38.5"/><line id="Linie_90" data-name="Linie 90" class="cls-2" x1="113.5" y1="38.5" x2="151.5" y2="38.5"/><line id="Linie_91" data-name="Linie 91" class="cls-3" x1="113.5" y1="21.5" x2="174.5" y2="21.5"/><line id="Linie_92" data-name="Linie 92" class="cls-1" x1="166.5" y1="38.5" x2="258.5" y2="38.5"/><circle id="Ellipse_97" data-name="Ellipse 97" class="cls-4" cx="4" cy="26" r="4"/><circle id="Ellipse_98" data-name="Ellipse 98" class="cls-5" cx="106" cy="52" r="4"/><circle id="Ellipse_99" data-name="Ellipse 99" class="cls-4" cx="159" cy="4" r="4"/><circle id="Ellipse_100" data-name="Ellipse 100" class="cls-5" cx="259" cy="52" r="4"/><g id="_8_Stunden_Arbeitszeit" data-name=" 8 Stunden Arbeitszeit" class="cls-6"><g class="cls-6"><path class="cls-4" d="M15.09,103.84a2.46,2.46,0,0,1-1-.87,2.36,2.36,0,0,1-.36-1.29,1.84,1.84,0,0,1,.34-1.1,2.77,2.77,0,0,1,1-.82v.15a2.19,2.19,0,0,1-.76-.65,1.39,1.39,0,0,1-.24-.82,2.23,2.23,0,0,1,.32-1.17,2.3,2.3,0,0,1,.88-.81,2.8,2.8,0,0,1,1.28-.28,2.89,2.89,0,0,1,1.3.28,2.32,2.32,0,0,1,.89.81,2.23,2.23,0,0,1,.31,1.17,1.46,1.46,0,0,1-.22.82,2.23,2.23,0,0,1-.77.65v-.15a2.62,2.62,0,0,1,1,.82,1.84,1.84,0,0,1,.34,1.1A2.29,2.29,0,0,1,19.1,103a2.43,2.43,0,0,1-1,.87,3.55,3.55,0,0,1-1.5.3A3.51,3.51,0,0,1,15.09,103.84Zm2.63-1.29a1,1,0,0,0,.42-.87,1.12,1.12,0,0,0-.42-.91,1.78,1.78,0,0,0-1.14-.33,1.77,1.77,0,0,0-1.13.33,1.14,1.14,0,0,0-.41.91,1,1,0,0,0,.41.87,1.77,1.77,0,0,0,1.13.32A1.8,1.8,0,0,0,17.72,102.55Zm-.21-3.36a.92.92,0,0,0,.35-.75.9.9,0,0,0-.35-.73,1.47,1.47,0,0,0-.93-.27,1.4,1.4,0,0,0-.9.28.88.88,0,0,0-.36.72.93.93,0,0,0,.34.74,1.42,1.42,0,0,0,.92.28A1.47,1.47,0,0,0,17.51,99.19Z"/><path class="cls-4" d="M24.57,103.54a2.64,2.64,0,0,1-1.13-1.66,4.43,4.43,0,0,1,0-.57h1.41a1.28,1.28,0,0,0,.48,1.11,2.25,2.25,0,0,0,1.43.4,2.48,2.48,0,0,0,1.32-.31.93.93,0,0,0,.51-.81,1,1,0,0,0-.21-.65,1.6,1.6,0,0,0-.68-.44,7.44,7.44,0,0,0-1.26-.33,4.35,4.35,0,0,1-2.06-.85,2,2,0,0,1-.66-1.62,2.1,2.1,0,0,1,.8-1.72,3.45,3.45,0,0,1,2.18-.63,3.54,3.54,0,0,1,2,.51,2.68,2.68,0,0,1,1,1.6L28.49,98a1.72,1.72,0,0,0-.62-.93,2.11,2.11,0,0,0-1.17-.27,2.13,2.13,0,0,0-1.2.28.88.88,0,0,0-.43.78,1,1,0,0,0,.19.61,1.45,1.45,0,0,0,.61.41,5.06,5.06,0,0,0,1.12.3,4.89,4.89,0,0,1,2.24.91,2.07,2.07,0,0,1,.71,1.66,2.1,2.1,0,0,1-.39,1.26,2.72,2.72,0,0,1-1.12.85,4.24,4.24,0,0,1-1.64.3A3.87,3.87,0,0,1,24.57,103.54Z"/><path class="cls-4" d="M31.8,103.66a1.92,1.92,0,0,1-.46-1.38V99.22h-1V98a1,1,0,0,0,.73-.2.88.88,0,0,0,.29-.69v-1h1.33V98h1.11v1.22H32.73V102a1.29,1.29,0,0,0,.12.65.43.43,0,0,0,.39.18,1,1,0,0,0,.35-.06.77.77,0,0,0,.27-.17l.61,1.1a2.45,2.45,0,0,1-1.38.4A1.71,1.71,0,0,1,31.8,103.66Z"/><path class="cls-4" d="M39,103l.33.21,0,0v0a2.78,2.78,0,0,1-.63.65,1.89,1.89,0,0,1-1.09.25,2.19,2.19,0,0,1-1.73-.71,2.82,2.82,0,0,1-.63-1.93V98h1.39v3a2.72,2.72,0,0,0,.28,1.4.94.94,0,0,0,.86.45,1.09,1.09,0,0,0,.93-.4,1.94,1.94,0,0,0,.32-1.21V98h1.39v6H39.18Z"/><path class="cls-4" d="M43.05,99l-.34-.2,0,0,0-.05a2.35,2.35,0,0,1,.59-.63,1.87,1.87,0,0,1,1.08-.25,2.19,2.19,0,0,1,1.73.71,2.82,2.82,0,0,1,.63,1.93V104H45.41v-3a2.72,2.72,0,0,0-.28-1.4.94.94,0,0,0-.86-.45,1.09,1.09,0,0,0-.93.4,1.94,1.94,0,0,0-.32,1.21V104H41.63V98H42.8Z"/><path class="cls-4" d="M53.91,104.06H52.74l-.18-.94.18.09a2.42,2.42,0,0,1-.88.71,2.39,2.39,0,0,1-1.1.28,2.79,2.79,0,0,1-1.51-.42,2.9,2.9,0,0,1-1.07-1.15,3.69,3.69,0,0,1,0-3.26,2.9,2.9,0,0,1,1.07-1.15,2.79,2.79,0,0,1,1.51-.42,2.38,2.38,0,0,1,1.25.32,1.73,1.73,0,0,1,.77.9h-.26V95.4h1.39Zm-1.85-1.71a2.21,2.21,0,0,0,0-2.7,1.48,1.48,0,0,0-1.18-.52,1.63,1.63,0,0,0-.87.24,1.65,1.65,0,0,0-.6.68,2.16,2.16,0,0,0,0,1.9,1.65,1.65,0,0,0,.6.68,1.63,1.63,0,0,0,.87.24A1.48,1.48,0,0,0,52.06,102.35Z"/><path class="cls-4" d="M56.66,102.15a1.38,1.38,0,0,0,.54.48,1.51,1.51,0,0,0,.7.17,1.66,1.66,0,0,0,.93-.25,1.34,1.34,0,0,0,.55-.7l1.28.43a2.68,2.68,0,0,1-1.06,1.38,3.07,3.07,0,0,1-1.7.48,2.72,2.72,0,0,1-1.49-.42,3,3,0,0,1-1-1.14A3.37,3.37,0,0,1,55,101a3.2,3.2,0,0,1,.38-1.57,3.06,3.06,0,0,1,1-1.12,2.72,2.72,0,0,1,1.49-.41,2.79,2.79,0,0,1,2.54,1.51,3.52,3.52,0,0,1,.39,1.59v.46H56.37A1.75,1.75,0,0,0,56.66,102.15ZM57,99.52a1.71,1.71,0,0,0-.56.86h3a1.59,1.59,0,0,0-.56-.86,1.59,1.59,0,0,0-1.91,0Z"/><path class="cls-4" d="M63.28,99l-.34-.2s0,0,0,0l0-.05a2.52,2.52,0,0,1,.59-.63,1.87,1.87,0,0,1,1.08-.25,2.18,2.18,0,0,1,1.73.71A2.83,2.83,0,0,1,67,100.5V104h-1.4v-3a2.72,2.72,0,0,0-.28-1.4.94.94,0,0,0-.86-.45,1.1,1.1,0,0,0-.93.4,1.94,1.94,0,0,0-.31,1.21V104h-1.4V98H63Z"/><path class="cls-4" d="M74.07,95.6h1.49L79,104H77.43l-1-2.33H73.16l-1,2.33H70.62Zm0,0h1.49L79,104H77.43l-1-2.33H73.16l-1,2.33H70.62Zm.74,1.85-1.15,2.84H76Zm0,0-1.15,2.84H76Z"/><path class="cls-4" d="M81.06,98.8l0-.06a3.68,3.68,0,0,1,.33-.41,1.38,1.38,0,0,1,.5-.31,2.23,2.23,0,0,1,.84-.14H83a.3.3,0,0,1,.15,0V99.2a2,2,0,0,0-.55-.07,1.22,1.22,0,0,0-.69.18,1.07,1.07,0,0,0-.42.53,2.58,2.58,0,0,0-.14.9V104H80V98h1.17l.24,1L81,98.85A.11.11,0,0,0,81.06,98.8Z"/><path class="cls-4" d="M84.23,95.46h1.39v3.62L85.4,99a1.84,1.84,0,0,1,.5-.58,2.65,2.65,0,0,1,.69-.4,2.09,2.09,0,0,1,.79-.14,2.79,2.79,0,0,1,1.51.42A3,3,0,0,1,90,99.4a3.54,3.54,0,0,1,0,3.19,2.91,2.91,0,0,1-1.07,1.13,2.79,2.79,0,0,1-1.51.42,2.37,2.37,0,0,1-1.12-.29,2.48,2.48,0,0,1-.88-.73l.2,0-.18.92H84.23Zm3.9,7.11a1.63,1.63,0,0,0,.6-.65A1.9,1.9,0,0,0,89,101a2,2,0,0,0-.22-.92,1.73,1.73,0,0,0-.61-.65,1.59,1.59,0,0,0-.86-.24,1.61,1.61,0,0,0-.85.23,1.56,1.56,0,0,0-.58.64,2.21,2.21,0,0,0,0,1.88,1.56,1.56,0,0,0,.58.64,1.69,1.69,0,0,0,1.72,0Z"/><path class="cls-4" d="M92.9,102.15a1.38,1.38,0,0,0,.54.48,1.51,1.51,0,0,0,.7.17,1.66,1.66,0,0,0,.93-.25,1.34,1.34,0,0,0,.55-.7l1.28.43a2.68,2.68,0,0,1-1.06,1.38,3.07,3.07,0,0,1-1.7.48,2.72,2.72,0,0,1-1.49-.42,3,3,0,0,1-1.05-1.14,3.37,3.37,0,0,1-.38-1.62,3.2,3.2,0,0,1,.38-1.57,3.06,3.06,0,0,1,1.05-1.12,2.72,2.72,0,0,1,1.49-.41,2.79,2.79,0,0,1,2.54,1.51,3.52,3.52,0,0,1,.39,1.59v.46H92.61A1.75,1.75,0,0,0,92.9,102.15Zm.29-2.63a1.71,1.71,0,0,0-.56.86h3a1.59,1.59,0,0,0-.56-.86,1.59,1.59,0,0,0-1.91,0Z"/><path class="cls-4" d="M98.1,96.88a.85.85,0,0,1-.26-.62.82.82,0,0,1,.26-.62.85.85,0,0,1,.62-.26.83.83,0,0,1,.61.26.79.79,0,0,1,.26.62.82.82,0,0,1-.26.62.83.83,0,0,1-.61.26A.85.85,0,0,1,98.1,96.88ZM99.41,98v6H98V98Z"/><path class="cls-4" d="M101.67,103.66a2,2,0,0,1-.46-1.38V99.22h-1V98a.94.94,0,0,0,.73-.2.85.85,0,0,0,.29-.69v-1h1.33V98h1.12v1.22H102.6V102a1.29,1.29,0,0,0,.12.65.45.45,0,0,0,.4.18,1,1,0,0,0,.34-.06.62.62,0,0,0,.27-.17l.61,1.1a2.4,2.4,0,0,1-1.38.4A1.71,1.71,0,0,1,101.67,103.66Z"/><path class="cls-4" d="M105.52,103.57l0,0,0,0a3.15,3.15,0,0,1-.52-.75,1.94,1.94,0,0,1-.15-1h1.36a.9.9,0,0,0,.25.79,1.24,1.24,0,0,0,.89.29,1.66,1.66,0,0,0,.79-.16.48.48,0,0,0,.3-.43.45.45,0,0,0-.14-.35,1.16,1.16,0,0,0-.46-.21c-.21-.06-.57-.14-1.09-.25l-.07,0h-.07a2.12,2.12,0,0,1-1.19-.58,1.62,1.62,0,0,1-.38-1.12,1.68,1.68,0,0,1,.62-1.36,3,3,0,0,1,3.2-.08,2.39,2.39,0,0,1,.8,1.37l-1.21.4a1.5,1.5,0,0,0-.39-.73,1.16,1.16,0,0,0-.73-.2,1.18,1.18,0,0,0-.69.17.51.51,0,0,0-.25.45.62.62,0,0,0,.12.42,1,1,0,0,0,.45.21l.17,0a15.64,15.64,0,0,1,1.66.46,1.63,1.63,0,0,1,.76.5,1.53,1.53,0,0,1,.23.9,1.6,1.6,0,0,1-.31,1,2,2,0,0,1-.85.67,3,3,0,0,1-1.23.24A2.75,2.75,0,0,1,105.52,103.57Z"/><path class="cls-4" d="M112,102.73h3.24V104h-4.65v-1.09l3.22-4v.39h-3.12V98h4.51v1.09l-3.2,4Z"/><path class="cls-4" d="M117.48,102.15a1.54,1.54,0,0,0,.54.48,1.58,1.58,0,0,0,.71.17,1.66,1.66,0,0,0,.93-.25,1.34,1.34,0,0,0,.55-.7l1.28.43a2.65,2.65,0,0,1-1.07,1.38,3,3,0,0,1-1.69.48,2.72,2.72,0,0,1-1.49-.42,2.89,2.89,0,0,1-1-1.14,3.37,3.37,0,0,1-.39-1.62,3.21,3.21,0,0,1,.39-1.57,2.9,2.9,0,0,1,1-1.12,2.72,2.72,0,0,1,1.49-.41,2.79,2.79,0,0,1,2.54,1.51,3.52,3.52,0,0,1,.39,1.59v.46H117.2A1.74,1.74,0,0,0,117.48,102.15Zm.3-2.63a1.64,1.64,0,0,0-.56.86h3a1.57,1.57,0,0,0-.55-.86,1.52,1.52,0,0,0-1-.32A1.49,1.49,0,0,0,117.78,99.52Z"/><path class="cls-4" d="M122.69,96.88a.82.82,0,0,1-.26-.62.79.79,0,0,1,.26-.62.83.83,0,0,1,.61-.26.85.85,0,0,1,.62.26.82.82,0,0,1,.26.62.89.89,0,0,1-.88.88A.83.83,0,0,1,122.69,96.88ZM124,98v6h-1.39V98Z"/><path class="cls-4" d="M126.26,103.66a1.92,1.92,0,0,1-.46-1.38V99.22h-1V98a.94.94,0,0,0,.73-.2.88.88,0,0,0,.29-.69v-1h1.33V98h1.12v1.22h-1.12V102a1.29,1.29,0,0,0,.12.65.44.44,0,0,0,.4.18,1,1,0,0,0,.34-.06.62.62,0,0,0,.27-.17l.61,1.1a2.45,2.45,0,0,1-1.38.4A1.71,1.71,0,0,1,126.26,103.66Z"/></g></g><g id="_23_Minuten_Pause" data-name=" 23 Minuten Pause" class="cls-6"><g class="cls-6"><path class="cls-7" d="M162.71,101.35l-.19.09a7.3,7.3,0,0,0-.69.4,1.64,1.64,0,0,0-.41.38,1.15,1.15,0,0,0-.21.52h3.73v1.32h-5.17v-.77a2.86,2.86,0,0,1,.3-1.35,2.83,2.83,0,0,1,.78-.92,6.72,6.72,0,0,1,1.05-.66l.48-.26a4.52,4.52,0,0,0,.66-.41,1.76,1.76,0,0,0,.42-.45,1.09,1.09,0,0,0,.15-.56,1.13,1.13,0,0,0-.3-.83,1.11,1.11,0,0,0-.82-.31,1.21,1.21,0,0,0-.78.25,1.33,1.33,0,0,0-.44.59,1.44,1.44,0,0,0-.11.66h-1.38A2.57,2.57,0,0,1,160,97.8a2.83,2.83,0,0,1,.93-1.14,2.49,2.49,0,0,1,1.52-.46,2.55,2.55,0,0,1,1.84.66,2.36,2.36,0,0,1,.68,1.76,2.11,2.11,0,0,1-.23,1,3.11,3.11,0,0,1-.59.75,5.3,5.3,0,0,1-.82.61l-.23.15-.23.12A1,1,0,0,1,162.71,101.35Z"/><path class="cls-7" d="M167.75,102.48a1.45,1.45,0,0,0,.95.28,1.28,1.28,0,0,0,.9-.33,1.09,1.09,0,0,0,.36-.84.92.92,0,0,0-.2-.57,1.38,1.38,0,0,0-.52-.42,1.72,1.72,0,0,0-.72-.15H168v-1h.54a1.5,1.5,0,0,0,.94-.26.85.85,0,0,0,.32-.72.79.79,0,0,0-.31-.69,1.26,1.26,0,0,0-.77-.24,1.4,1.4,0,0,0-.82.21.68.68,0,0,0-.27.63h-1.38a2.15,2.15,0,0,1,.3-1.13,2,2,0,0,1,.87-.76,3,3,0,0,1,1.3-.27,2.67,2.67,0,0,1,1.22.29,2.42,2.42,0,0,1,.91.79,1.85,1.85,0,0,1,.35,1.08,2,2,0,0,1-.16.74,1.65,1.65,0,0,1-.43.6,1.27,1.27,0,0,1-.63.3v-.1a1.4,1.4,0,0,1,.69.29,1.58,1.58,0,0,1,.51.63,1.76,1.76,0,0,1,.2.8,2.36,2.36,0,0,1-.35,1.23,2.57,2.57,0,0,1-1,.92,2.66,2.66,0,0,1-1.35.35,2.92,2.92,0,0,1-1.38-.31,2.29,2.29,0,0,1-.92-.85,2,2,0,0,1-.26-1.22h1.33A.82.82,0,0,0,167.75,102.48Z"/><path class="cls-7" d="M175.69,95.6h1.74l2.89,6.13h-.21L183,95.6h1.74V104h-1.44V97.82h.21l-2.55,5.28h-1.45l-2.54-5.28h.2V104h-1.44Z"/><path class="cls-7" d="M186,96.88a.85.85,0,0,1-.26-.62.82.82,0,0,1,.26-.62.85.85,0,0,1,.62-.26.87.87,0,0,1,.62.26.81.81,0,0,1,.25.62.84.84,0,0,1-.25.62.87.87,0,0,1-.62.26A.85.85,0,0,1,186,96.88ZM187.34,98v6H186V98Z"/><path class="cls-7" d="M190.2,99l-.34-.2s0,0,0,0l0-.05a2.52,2.52,0,0,1,.59-.63,1.87,1.87,0,0,1,1.08-.25,2.18,2.18,0,0,1,1.73.71,2.83,2.83,0,0,1,.64,1.93V104h-1.4v-3a2.72,2.72,0,0,0-.28-1.4.94.94,0,0,0-.86-.45,1.1,1.1,0,0,0-.93.4,1.94,1.94,0,0,0-.31,1.21V104h-1.4V98H190Z"/><path class="cls-7" d="M198.88,103l.33.21,0,0v0a2.78,2.78,0,0,1-.63.65,1.89,1.89,0,0,1-1.09.25,2.19,2.19,0,0,1-1.73-.71,2.82,2.82,0,0,1-.63-1.93V98h1.39v3a2.72,2.72,0,0,0,.28,1.4.94.94,0,0,0,.86.45,1.09,1.09,0,0,0,.93-.4,1.94,1.94,0,0,0,.32-1.21V98h1.39v6H199.1Z"/><path class="cls-7" d="M202.42,103.66a1.92,1.92,0,0,1-.46-1.38V99.22h-1V98a.94.94,0,0,0,.73-.2.88.88,0,0,0,.29-.69v-1h1.33V98h1.12v1.22h-1.12V102a1.29,1.29,0,0,0,.12.65.44.44,0,0,0,.4.18,1,1,0,0,0,.34-.06.62.62,0,0,0,.27-.17l.61,1.1a2.45,2.45,0,0,1-1.38.4A1.71,1.71,0,0,1,202.42,103.66Z"/><path class="cls-7" d="M207.08,102.15a1.54,1.54,0,0,0,.54.48,1.58,1.58,0,0,0,.71.17,1.66,1.66,0,0,0,.93-.25,1.34,1.34,0,0,0,.55-.7l1.28.43a2.65,2.65,0,0,1-1.07,1.38,3,3,0,0,1-1.69.48,2.72,2.72,0,0,1-1.49-.42,2.89,2.89,0,0,1-1.05-1.14,3.37,3.37,0,0,1-.39-1.62,3.21,3.21,0,0,1,.39-1.57,2.9,2.9,0,0,1,1.05-1.12,2.72,2.72,0,0,1,1.49-.41,2.79,2.79,0,0,1,2.54,1.51,3.52,3.52,0,0,1,.39,1.59v.46H206.8A1.74,1.74,0,0,0,207.08,102.15Zm.3-2.63a1.64,1.64,0,0,0-.56.86h3a1.57,1.57,0,0,0-.55-.86,1.52,1.52,0,0,0-1-.32A1.49,1.49,0,0,0,207.38,99.52Z"/><path class="cls-7" d="M213.71,99l-.34-.2,0,0,0-.05a2.35,2.35,0,0,1,.59-.63,1.87,1.87,0,0,1,1.08-.25,2.19,2.19,0,0,1,1.73.71,2.82,2.82,0,0,1,.63,1.93V104h-1.39v-3a2.72,2.72,0,0,0-.28-1.4.94.94,0,0,0-.86-.45,1.09,1.09,0,0,0-.93.4,1.94,1.94,0,0,0-.32,1.21V104h-1.39V98h1.17Z"/><path class="cls-7" d="M226.25,95.92a2.43,2.43,0,0,1,.9.9,2.59,2.59,0,0,1,.33,1.3,2.53,2.53,0,0,1-.33,1.29,2.43,2.43,0,0,1-.9.9,2.53,2.53,0,0,1-1.29.33h-1.62V104H221.9V95.6H225A2.62,2.62,0,0,1,226.25,95.92ZM225.82,99a1.28,1.28,0,0,0,0-1.74,1.22,1.22,0,0,0-.89-.33h-1.59v2.4h1.59A1.22,1.22,0,0,0,225.82,99Z"/><path class="cls-7" d="M233.27,102.71a.27.27,0,0,0,.15.15,1.33,1.33,0,0,0,.32,0h.08V104h-.65a1.21,1.21,0,0,1-.78-.27,1.26,1.26,0,0,1-.45-.74l.33,0a1.34,1.34,0,0,1-.62.8,2,2,0,0,1-1.11.31,3,3,0,0,1-1.27-.25,2,2,0,0,1-.84-.72,2,2,0,0,1-.3-1.08,1.47,1.47,0,0,1,.58-1.26,3,3,0,0,1,1.43-.51,7.1,7.1,0,0,1,1.72,0V100a.59.59,0,0,0-.13-.36,1,1,0,0,0-.39-.28,1.64,1.64,0,0,0-.62-.11,1.29,1.29,0,0,0-.69.2,1,1,0,0,0-.43.56l-1.24-.4a2.16,2.16,0,0,1,.84-1.25,2.49,2.49,0,0,1,1.54-.47,2.71,2.71,0,0,1,1.38.33A2.32,2.32,0,0,1,233,99a1.68,1.68,0,0,1,.27.82v2.51A1.28,1.28,0,0,0,233.27,102.71Zm-3.16-1.19c-.41.09-.61.28-.61.57a.71.71,0,0,0,.58.75,1.64,1.64,0,0,0,1.18-.14.87.87,0,0,0,.6-.78v-.39A4.84,4.84,0,0,0,230.11,101.52Z"/><path class="cls-7" d="M238.42,103l.33.21,0,0v0a2.78,2.78,0,0,1-.63.65,1.89,1.89,0,0,1-1.09.25,2.19,2.19,0,0,1-1.73-.71,2.82,2.82,0,0,1-.63-1.93V98H236v3a2.72,2.72,0,0,0,.28,1.4.94.94,0,0,0,.86.45,1.09,1.09,0,0,0,.93-.4,1.94,1.94,0,0,0,.32-1.21V98h1.39v6h-1.17Z"/><path class="cls-7" d="M241.68,103.57l0,0,0,0a3.15,3.15,0,0,1-.52-.75,1.94,1.94,0,0,1-.15-1h1.36a.9.9,0,0,0,.25.79,1.24,1.24,0,0,0,.89.29,1.66,1.66,0,0,0,.79-.16.48.48,0,0,0,.3-.43.45.45,0,0,0-.14-.35,1.16,1.16,0,0,0-.46-.21c-.21-.06-.57-.14-1.09-.25l-.07,0h-.07a2.12,2.12,0,0,1-1.19-.58,1.62,1.62,0,0,1-.38-1.12,1.68,1.68,0,0,1,.62-1.36,3,3,0,0,1,3.2-.08,2.39,2.39,0,0,1,.8,1.37l-1.21.4a1.5,1.5,0,0,0-.39-.73,1.16,1.16,0,0,0-.73-.2,1.18,1.18,0,0,0-.69.17.51.51,0,0,0-.25.45.62.62,0,0,0,.12.42,1,1,0,0,0,.45.21l.17,0a15.64,15.64,0,0,1,1.66.46,1.63,1.63,0,0,1,.76.5,1.53,1.53,0,0,1,.23.9,1.6,1.6,0,0,1-.31,1,2,2,0,0,1-.85.67,3,3,0,0,1-1.23.24A2.75,2.75,0,0,1,241.68,103.57Z"/><path class="cls-7" d="M248.46,102.15a1.38,1.38,0,0,0,.54.48,1.55,1.55,0,0,0,.71.17,1.6,1.6,0,0,0,.92-.25,1.29,1.29,0,0,0,.55-.7l1.29.43a2.7,2.7,0,0,1-1.07,1.38,3.06,3.06,0,0,1-1.69.48,2.78,2.78,0,0,1-1.5-.42,3,3,0,0,1-1.05-1.14,3.49,3.49,0,0,1-.38-1.62,3.31,3.31,0,0,1,.38-1.57,3.06,3.06,0,0,1,1.05-1.12,3,3,0,0,1,3,0,2.88,2.88,0,0,1,1.05,1.11,3.52,3.52,0,0,1,.39,1.59v.46h-4.47A1.9,1.9,0,0,0,248.46,102.15Zm.29-2.63a1.69,1.69,0,0,0-.55.86h3a1.63,1.63,0,0,0-.55-.86,1.6,1.6,0,0,0-1.92,0Z"/></g></g><g id="_30" data-name=" 30" class="cls-6"><g class="cls-6"><path class="cls-8" d="M161.15,86.48a1.45,1.45,0,0,0,.95.28,1.28,1.28,0,0,0,.9-.33,1.09,1.09,0,0,0,.36-.84.92.92,0,0,0-.2-.57,1.38,1.38,0,0,0-.52-.42,1.72,1.72,0,0,0-.72-.15h-.56v-1h.54a1.5,1.5,0,0,0,.94-.26.85.85,0,0,0,.32-.72.79.79,0,0,0-.31-.69,1.26,1.26,0,0,0-.77-.24,1.4,1.4,0,0,0-.82.21.68.68,0,0,0-.27.63h-1.38a2.15,2.15,0,0,1,.3-1.13,2,2,0,0,1,.87-.76,3,3,0,0,1,1.3-.27,2.67,2.67,0,0,1,1.22.29,2.42,2.42,0,0,1,.91.79,1.85,1.85,0,0,1,.35,1.08,2,2,0,0,1-.16.74,1.65,1.65,0,0,1-.43.6,1.27,1.27,0,0,1-.63.3v-.1a1.4,1.4,0,0,1,.69.29,1.58,1.58,0,0,1,.51.63,1.76,1.76,0,0,1,.2.8,2.36,2.36,0,0,1-.35,1.23,2.57,2.57,0,0,1-1,.92,2.66,2.66,0,0,1-1.35.35,2.92,2.92,0,0,1-1.38-.31,2.29,2.29,0,0,1-.92-.85,2,2,0,0,1-.26-1.22h1.33A.82.82,0,0,0,161.15,86.48Z"/><path class="cls-8" d="M170.8,80.73a3.57,3.57,0,0,1,1.14,1.46,5.08,5.08,0,0,1,0,4,3.37,3.37,0,0,1-1.14,1.4,2.83,2.83,0,0,1-1.65.51,2.91,2.91,0,0,1-1.69-.52,3.52,3.52,0,0,1-1.19-1.41,4.79,4.79,0,0,1,0-4,3.68,3.68,0,0,1,1.2-1.46,2.84,2.84,0,0,1,1.67-.54A2.77,2.77,0,0,1,170.8,80.73Zm-2.63,1.17a2.66,2.66,0,0,0-.75,1,3.12,3.12,0,0,0-.28,1.31,3.17,3.17,0,0,0,.27,1.29,2.46,2.46,0,0,0,.73,1,1.67,1.67,0,0,0,1,.36,1.47,1.47,0,0,0,1-.34,2.44,2.44,0,0,0,.69-1,3.34,3.34,0,0,0,.25-1.32,3.47,3.47,0,0,0-.26-1.33,2.56,2.56,0,0,0-.7-1,1.4,1.4,0,0,0-.94-.37A1.56,1.56,0,0,0,168.17,81.9Z"/></g></g><line id="Linie_94" data-name="Linie 94" class="cls-9" x1="159" y1="105.3" x2="172" y2="96.88"/><line id="Linie_95" data-name="Linie 95" class="cls-10" x1="159" y1="104.3" x2="172" y2="95.88"/><line id="Linie_96" data-name="Linie 96" class="cls-11" x1="139.83" y1="99.94" x2="147.22" y2="99.94"/><path id="Pfad_70" data-name="Pfad 70" class="cls-12" d="M145.47,96.39l3.15,3.62-3.15,3.6"/></g></g></svg>