<?xml version="1.0" encoding="utf-8"?>
<!-- Generator: Adobe Illustrator 25.0.0, SVG Export Plug-In . SVG Version: 6.00 Build 0)  -->
<svg version="1.2" baseProfile="tiny" id="Ebene_1" xmlns="http://www.w3.org/2000/svg" xmlns:xlink="http://www.w3.org/1999/xlink"
	 x="0px" y="0px" viewBox="0 0 61.84 76.93" overflow="visible" xml:space="preserve">
<path transform="translate(-278.023 -475.905)" fill="#ffffff" d="M292.53,479.59l18.86-2.99c2.44-0.39,4.74,1.28,5.13,3.73l0,0
	c0.39,2.44-1.28,4.74-3.73,5.13l-18.86,2.99c-2.44,0.39-4.74-1.28-5.13-3.73l0,0C288.41,482.28,290.08,479.98,292.53,479.59z
	 M308.45,491.96c-16.79,0.29-30.17,14.04-29.88,30.72c0.28,16.68,14.12,29.98,30.91,29.69s30.17-14.04,29.88-30.72
	C339.08,504.96,325.24,491.67,308.45,491.96z M295.84,517.66c-1.99,0-3.61-1.62-3.61-3.61s1.62-3.61,3.61-3.61
	c1.99,0,3.61,1.62,3.61,3.61S297.83,517.66,295.84,517.66z M318.86,528.12c-2.52,2.07-6.18,3.12-9.87,3.12
	c-3.42,0-6.88-0.9-9.51-2.71c-1.14-0.79-1.42-2.34-0.63-3.48c0.78-1.14,2.34-1.42,3.48-0.63c3.68,2.54,10.17,2.47,13.36-0.16
	c1.07-0.88,2.64-0.72,3.52,0.34S319.92,527.25,318.86,528.12z M321.37,517.22c-1.99,0-3.61-1.62-3.61-3.61
	c0-1.99,1.62-3.61,3.61-3.61c1.99,0,3.61,1.62,3.61,3.61C324.98,515.6,323.36,517.22,321.37,517.22z"/>
</svg>
