<?xml version="1.0" encoding="utf-8"?>
<!-- Generator: Adobe Illustrator 25.0.0, SVG Export Plug-In . SVG Version: 6.00 Build 0)  -->
<svg version="1.2" baseProfile="tiny" id="Ebene_1" xmlns="http://www.w3.org/2000/svg" xmlns:xlink="http://www.w3.org/1999/xlink"
	 x="0px" y="0px" viewBox="0 0 263 106.3" overflow="visible" xml:space="preserve">
<line id="Linie_93" fill="none" stroke="#61FFC5" stroke-width="7" stroke-linecap="round" x1="3.5" y1="38.5" x2="98.5" y2="38.5"/>
<line id="Linie_90" fill="none" stroke="#FFA55F" stroke-width="7" stroke-linecap="round" x1="113.5" y1="38.5" x2="151.5" y2="38.5"/>
<line id="Linie_91" fill="none" stroke="#2D96FF" stroke-width="7" stroke-linecap="round" x1="113.5" y1="21.5" x2="174.5" y2="21.5"/>
<line id="Linie_92" fill="none" stroke="#61FFC5" stroke-width="7" stroke-linecap="round" x1="166.5" y1="38.5" x2="258.5" y2="38.5"/>
<circle id="Ellipse_97" fill="#61FFC5" cx="4" cy="26" r="4"/>
<circle id="Ellipse_98" fill="#FF6161" cx="106" cy="52" r="4"/>
<circle id="Ellipse_99" fill="#61FFC5" cx="159" cy="4" r="4"/>
<circle id="Ellipse_100" fill="#FF6161" cx="259" cy="52" r="4"/>
<g id="_8_Stunden_Arbeitszeit">
	<g>
		<path fill="#61FFC5" d="M15.09,103.84c-0.41-0.19-0.75-0.49-1-0.87c-0.24-0.39-0.37-0.83-0.36-1.29c0-0.39,0.12-0.78,0.35-1.1
			c0.26-0.35,0.6-0.63,1-0.82v0.15c-0.3-0.16-0.56-0.38-0.76-0.65c-0.16-0.24-0.24-0.53-0.23-0.82c-0.01-0.41,0.1-0.82,0.32-1.17
			c0.21-0.35,0.52-0.63,0.88-0.81c0.39-0.19,0.83-0.29,1.27-0.28c0.45-0.01,0.89,0.09,1.3,0.28c0.76,0.37,1.23,1.15,1.21,2
			c0.01,0.29-0.07,0.58-0.23,0.82c-0.2,0.27-0.47,0.5-0.77,0.65v-0.15c0.41,0.18,0.77,0.46,1.05,0.82c0.22,0.32,0.34,0.71,0.33,1.1
			c0.01,0.46-0.12,0.9-0.36,1.29c-0.25,0.37-0.6,0.67-1,0.87c-0.48,0.21-0.99,0.31-1.51,0.3C16.07,104.16,15.56,104.05,15.09,103.84
			z M17.72,102.55c0.28-0.2,0.44-0.53,0.42-0.87c0.01-0.35-0.14-0.69-0.41-0.91c-0.33-0.24-0.74-0.35-1.15-0.33
			c-0.4-0.02-0.8,0.09-1.12,0.33c-0.28,0.22-0.43,0.56-0.42,0.91c-0.02,0.34,0.14,0.67,0.42,0.87c0.33,0.23,0.72,0.35,1.12,0.32
			C16.99,102.89,17.39,102.78,17.72,102.55z M17.52,99.19c0.23-0.18,0.35-0.46,0.34-0.75c0.01-0.28-0.12-0.55-0.34-0.73
			c-0.28-0.19-0.61-0.29-0.94-0.27c-0.32-0.01-0.64,0.09-0.9,0.28c-0.23,0.17-0.36,0.44-0.36,0.72c-0.01,0.29,0.12,0.56,0.35,0.74
			c0.26,0.2,0.58,0.3,0.91,0.28C16.91,99.48,17.24,99.38,17.52,99.19z"/>
		<path fill="#61FFC5" d="M24.57,103.55c-0.58-0.38-0.99-0.98-1.13-1.66c-0.02-0.19-0.02-0.38,0-0.57h1.4
			c-0.03,0.43,0.15,0.85,0.49,1.11c0.41,0.29,0.91,0.43,1.42,0.4c0.46,0.02,0.92-0.09,1.33-0.31c0.3-0.16,0.5-0.47,0.5-0.81
			c0.01-0.23-0.07-0.46-0.21-0.65c-0.18-0.2-0.42-0.36-0.68-0.44c-0.41-0.15-0.82-0.26-1.25-0.33c-0.75-0.1-1.47-0.39-2.07-0.85
			c-0.46-0.41-0.7-1.01-0.66-1.62c-0.02-0.67,0.28-1.31,0.81-1.72c0.63-0.45,1.4-0.67,2.17-0.63c0.7-0.03,1.4,0.15,2,0.51
			c0.52,0.39,0.88,0.96,1,1.6l-1.24,0.41c-0.1-0.37-0.32-0.7-0.62-0.93c-0.35-0.2-0.76-0.29-1.16-0.27
			c-0.42-0.03-0.84,0.07-1.21,0.28c-0.27,0.17-0.43,0.46-0.43,0.78c0,0.22,0.07,0.43,0.2,0.61c0.16,0.19,0.37,0.33,0.6,0.41
			c0.36,0.14,0.74,0.24,1.12,0.3c0.81,0.11,1.58,0.42,2.24,0.91c0.48,0.41,0.75,1.03,0.72,1.66c0.01,0.45-0.13,0.9-0.4,1.26
			c-0.29,0.38-0.68,0.67-1.12,0.85c-0.52,0.21-1.08,0.31-1.64,0.3C25.98,104.17,25.22,103.96,24.57,103.55z"/>
		<path fill="#61FFC5" d="M31.8,103.66c-0.33-0.38-0.49-0.88-0.46-1.38v-3.06h-1V98c0.26,0.04,0.53-0.03,0.73-0.2
			c0.19-0.18,0.3-0.43,0.29-0.69v-1h1.33v1.88h1.12v1.22h-1.12v2.82c-0.02,0.22,0.02,0.45,0.12,0.65c0.09,0.13,0.24,0.2,0.4,0.18
			c0.12,0,0.23-0.02,0.34-0.06c0.1-0.03,0.2-0.09,0.27-0.17l0.61,1.1c-0.41,0.27-0.89,0.41-1.38,0.4
			C32.59,104.15,32.14,103.98,31.8,103.66z"/>
		<path fill="#61FFC5" d="M38.95,102.97l0.34,0.21l0,0l0,0c-0.17,0.25-0.38,0.47-0.62,0.65c-0.33,0.19-0.72,0.28-1.1,0.25
			c-0.65,0.03-1.28-0.23-1.72-0.71c-0.45-0.54-0.68-1.23-0.64-1.93v-3.5h1.39v3c-0.03,0.48,0.07,0.96,0.28,1.4
			c0.19,0.29,0.51,0.46,0.86,0.45c0.36,0.03,0.71-0.12,0.94-0.4c0.23-0.36,0.34-0.78,0.31-1.21v-3.26h1.39v6h-1.16L38.95,102.97z"/>
		<path fill="#61FFC5" d="M43.05,99.02l-0.33-0.2l0,0v-0.05c0.15-0.24,0.35-0.46,0.58-0.63c0.33-0.19,0.7-0.28,1.08-0.25
			c0.65-0.04,1.29,0.23,1.73,0.71c0.45,0.54,0.68,1.23,0.64,1.93v3.5h-1.4v-3c0.03-0.48-0.06-0.97-0.28-1.4
			c-0.18-0.3-0.51-0.47-0.85-0.45c-0.36-0.03-0.71,0.12-0.94,0.4c-0.23,0.36-0.34,0.78-0.31,1.21v3.26h-1.39v-6h1.16L43.05,99.02z"
			/>
		<path fill="#61FFC5" d="M53.95,104.06h-1.2l-0.18-0.94l0.18,0.09c-0.24,0.3-0.54,0.54-0.88,0.71c-0.34,0.18-0.72,0.27-1.1,0.28
			c-0.54,0.01-1.06-0.14-1.52-0.42c-0.45-0.28-0.82-0.68-1.06-1.15c-0.52-1.02-0.52-2.24,0-3.26c0.24-0.47,0.61-0.87,1.06-1.15
			c0.46-0.28,0.98-0.43,1.52-0.42c0.44-0.01,0.86,0.1,1.24,0.32c0.35,0.2,0.63,0.52,0.77,0.9h-0.26V95.4h1.43V104.06z M52.1,102.35
			c0.61-0.8,0.61-1.9,0-2.7c-0.29-0.34-0.72-0.54-1.17-0.52c-0.31,0-0.61,0.08-0.87,0.24c-0.26,0.17-0.47,0.4-0.61,0.68
			c-0.28,0.6-0.28,1.3,0,1.9c0.14,0.28,0.35,0.51,0.61,0.68c0.26,0.16,0.56,0.24,0.87,0.24c0.44,0,0.85-0.19,1.13-0.52L52.1,102.35z
			"/>
		<path fill="#61FFC5" d="M56.66,102.15c0.13,0.21,0.32,0.37,0.54,0.48c0.22,0.11,0.46,0.17,0.71,0.17
			c0.32,0.01,0.65-0.08,0.92-0.25c0.26-0.16,0.46-0.41,0.55-0.7l1.29,0.43c-0.19,0.57-0.57,1.05-1.07,1.38
			c-0.5,0.32-1.09,0.49-1.69,0.48c-0.53,0.01-1.05-0.14-1.5-0.42c-0.44-0.28-0.81-0.67-1.05-1.14c-0.26-0.5-0.39-1.06-0.38-1.62
			c0-0.55,0.13-1.09,0.38-1.57c0.25-0.46,0.61-0.84,1.05-1.12c0.93-0.54,2.07-0.54,3,0c0.44,0.27,0.81,0.65,1.05,1.11
			c0.25,0.49,0.39,1.04,0.39,1.59v0.46h-4.47C56.42,101.69,56.52,101.93,56.66,102.15z M56.95,99.55c-0.27,0.22-0.46,0.52-0.55,0.86
			h3c-0.09-0.34-0.28-0.64-0.55-0.86c-0.57-0.43-1.35-0.43-1.92,0H56.95z"/>
		<path fill="#61FFC5" d="M63.28,99.02l-0.33-0.2l0,0c0,0,0,0,0-0.05c0.15-0.25,0.35-0.46,0.59-0.63c0.33-0.19,0.7-0.28,1.08-0.25
			c0.65-0.03,1.28,0.23,1.72,0.71c0.45,0.54,0.68,1.23,0.64,1.93v3.5h-1.33v-3c0.03-0.48-0.07-0.96-0.28-1.4
			c-0.19-0.29-0.51-0.46-0.86-0.45c-0.36-0.03-0.71,0.12-0.94,0.4c-0.23,0.36-0.34,0.78-0.31,1.21v3.26h-1.39v-6h1.16L63.28,99.02z"
			/>
		<path fill="#61FFC5" d="M74.07,95.6h1.49L79,104h-1.57l-0.95-2.33h-3.32l-1,2.33h-1.57L74.07,95.6z M74.07,95.6h1.49L79,104h-1.57
			l-0.95-2.33h-3.32l-1,2.33h-1.57L74.07,95.6z M74.82,97.45l-1.16,2.84h2.29L74.82,97.45z M74.82,97.45l-1.16,2.84h2.29
			L74.82,97.45z"/>
		<path fill="#61FFC5" d="M81.07,98.8v-0.06c0.11-0.16,0.22-0.29,0.32-0.41c0.14-0.14,0.31-0.24,0.5-0.31
			c0.27-0.1,0.55-0.15,0.84-0.14h0.24c0.05-0.01,0.1-0.01,0.15,0v1.27c-0.18-0.05-0.36-0.07-0.55-0.07
			c-0.25-0.01-0.49,0.05-0.7,0.18c-0.19,0.13-0.34,0.31-0.42,0.53c-0.1,0.29-0.14,0.59-0.13,0.9v3.26h-1.37v-6h1.17l0.24,1L81,98.84
			L81.07,98.8z"/>
		<path fill="#61FFC5" d="M84.24,95.46h1.39v3.62l-0.23-0.1c0.13-0.22,0.3-0.42,0.5-0.58c0.21-0.17,0.44-0.3,0.69-0.4
			c0.25-0.1,0.52-0.14,0.79-0.14c0.54-0.01,1.06,0.14,1.52,0.42c0.44,0.27,0.81,0.66,1.06,1.12c0.51,1,0.51,2.19,0,3.19
			c-0.25,0.46-0.61,0.85-1.06,1.13c-0.46,0.28-0.98,0.43-1.52,0.42c-0.39,0-0.78-0.1-1.12-0.29c-0.34-0.17-0.64-0.42-0.87-0.73h0.19
			l-0.18,0.92h-1.16L84.24,95.46z M88.14,102.57c0.25-0.16,0.46-0.39,0.6-0.65c0.14-0.29,0.21-0.6,0.21-0.92
			c0.01-0.32-0.07-0.64-0.22-0.92c-0.14-0.27-0.35-0.49-0.61-0.65c-0.26-0.16-0.56-0.24-0.86-0.24c-0.3,0-0.59,0.08-0.85,0.23
			c-0.25,0.16-0.45,0.38-0.58,0.64c-0.27,0.6-0.27,1.28,0,1.88c0.13,0.26,0.33,0.48,0.58,0.64c0.26,0.15,0.55,0.23,0.85,0.23
			c0.31,0,0.62-0.09,0.88-0.26L88.14,102.57z"/>
		<path fill="#61FFC5" d="M92.95,102.15c0.13,0.21,0.32,0.37,0.54,0.48c0.22,0.11,0.46,0.17,0.71,0.17
			c0.32,0.01,0.65-0.08,0.92-0.25c0.26-0.16,0.46-0.41,0.55-0.7l1.29,0.43c-0.19,0.57-0.57,1.05-1.07,1.38
			c-0.5,0.32-1.09,0.49-1.69,0.48c-0.53,0.01-1.05-0.14-1.5-0.42c-0.43-0.29-0.77-0.68-1-1.14c-0.26-0.5-0.39-1.06-0.38-1.62
			c0-0.55,0.13-1.09,0.38-1.57c0.24-0.45,0.58-0.84,1-1.12c1.34-0.82,3.1-0.39,3.92,0.95c0.03,0.05,0.06,0.1,0.08,0.15
			c0.26,0.49,0.4,1.04,0.39,1.59v0.46h-4.46C92.68,101.68,92.79,101.93,92.95,102.15z M93.24,99.52c-0.27,0.22-0.46,0.52-0.55,0.86
			h3c-0.09-0.34-0.28-0.64-0.55-0.86c-0.29-0.22-0.64-0.33-1-0.32c-0.35,0-0.68,0.13-0.95,0.35L93.24,99.52z"/>
		<path fill="#61FFC5" d="M98.1,96.88c-0.17-0.16-0.26-0.39-0.26-0.62c-0.01-0.23,0.09-0.46,0.26-0.62
			c0.16-0.17,0.39-0.26,0.62-0.26c0.23,0,0.46,0.09,0.62,0.26c0.17,0.16,0.27,0.39,0.26,0.62c0,0.23-0.09,0.46-0.26,0.62
			c-0.16,0.17-0.39,0.26-0.62,0.26C98.49,97.14,98.26,97.05,98.1,96.88z M99.41,98v6h-1.39v-6H99.41z"/>
		<path fill="#61FFC5" d="M101.68,103.66c-0.33-0.38-0.5-0.88-0.47-1.38v-3.06h-1V98c0.26,0.03,0.53-0.04,0.74-0.2
			c0.19-0.18,0.29-0.43,0.28-0.69v-1h1.34v1.88h1.11v1.22h-1.11v2.82c-0.02,0.22,0.02,0.45,0.12,0.65c0.09,0.13,0.24,0.19,0.39,0.18
			c0.12,0,0.23-0.02,0.34-0.06c0.1-0.03,0.2-0.09,0.27-0.17l0.62,1.1c-0.41,0.27-0.89,0.41-1.38,0.4
			C102.47,104.15,102.01,103.98,101.68,103.66z"/>
		<path fill="#61FFC5" d="M105.52,103.55L105.52,103.55L105.52,103.55c-0.21-0.22-0.38-0.48-0.52-0.75c-0.14-0.31-0.19-0.66-0.15-1
			h1.36c-0.05,0.29,0.05,0.58,0.25,0.79c0.25,0.21,0.57,0.31,0.89,0.29c0.27,0.01,0.54-0.04,0.79-0.16c0.18-0.07,0.29-0.24,0.3-0.43
			c0.01-0.13-0.04-0.26-0.14-0.35c-0.13-0.1-0.29-0.17-0.45-0.21l-1.1-0.25h-0.07h-0.06c-0.45-0.06-0.87-0.26-1.2-0.58
			c-0.26-0.31-0.4-0.71-0.38-1.12c-0.02-0.53,0.21-1.03,0.62-1.36c0.96-0.65,2.21-0.68,3.21-0.08c0.41,0.35,0.69,0.84,0.79,1.37
			l-1.21,0.4c-0.05-0.28-0.19-0.53-0.39-0.73c-0.21-0.15-0.46-0.22-0.72-0.2c-0.25-0.02-0.49,0.04-0.7,0.17
			c-0.16,0.09-0.25,0.27-0.25,0.45c-0.01,0.15,0.03,0.3,0.12,0.42c0.13,0.11,0.28,0.18,0.45,0.21h0.17
			c0.56,0.12,1.12,0.27,1.66,0.46c0.3,0.09,0.56,0.26,0.76,0.5c0.17,0.27,0.25,0.58,0.23,0.9c0.01,0.36-0.1,0.71-0.31,1
			c-0.22,0.3-0.51,0.53-0.85,0.67c-0.39,0.16-0.8,0.25-1.22,0.24C106.71,104.22,106.05,103.99,105.52,103.55z"/>
		<path fill="#61FFC5" d="M111.95,102.73h3.24V104h-4.64v-1.09l3.21-4v0.39h-3.12v-1.27h4.52v1.09l-3.21,4L111.95,102.73z"/>
		<path fill="#61FFC5" d="M117.49,102.15c0.13,0.21,0.32,0.37,0.54,0.48c0.22,0.11,0.46,0.17,0.71,0.17
			c0.32,0.01,0.65-0.08,0.92-0.25c0.26-0.16,0.45-0.41,0.55-0.7l1.28,0.43c-0.19,0.57-0.56,1.05-1.06,1.38
			c-0.5,0.32-1.09,0.49-1.69,0.48c-0.53,0.01-1.05-0.14-1.5-0.42c-0.43-0.29-0.77-0.68-1-1.14c-0.26-0.5-0.39-1.06-0.38-1.62
			c-0.01-0.55,0.12-1.09,0.38-1.57c0.24-0.45,0.58-0.84,1-1.12c0.45-0.28,0.97-0.42,1.5-0.41c0.52-0.01,1.04,0.13,1.49,0.4
			c0.43,0.27,0.77,0.66,1,1.11c0.26,0.49,0.4,1.04,0.39,1.59v0.46h-4.46C117.21,101.69,117.33,101.94,117.49,102.15z M117.78,99.52
			c-0.27,0.22-0.47,0.52-0.56,0.86h3c-0.09-0.34-0.28-0.64-0.55-0.86c-0.29-0.22-0.64-0.33-1-0.32c-0.33,0.02-0.64,0.14-0.89,0.35
			L117.78,99.52z"/>
		<path fill="#61FFC5" d="M122.69,96.88c-0.17-0.16-0.26-0.39-0.26-0.62c-0.01-0.23,0.09-0.46,0.26-0.62
			c0.16-0.17,0.39-0.26,0.62-0.26c0.23,0,0.46,0.09,0.62,0.26c0.17,0.16,0.26,0.39,0.25,0.62c0.01,0.23-0.08,0.46-0.25,0.62
			c-0.16,0.17-0.39,0.26-0.62,0.26C123.08,97.14,122.85,97.05,122.69,96.88z M124,98v6h-1.39v-6H124z"/>
		<path fill="#61FFC5" d="M126.26,103.66c-0.32-0.39-0.49-0.88-0.46-1.38v-3.06h-1V98c0.26,0.04,0.53-0.03,0.73-0.2
			c0.2-0.17,0.31-0.43,0.29-0.69v-1h1.33v1.88h1.12v1.22h-1.12v2.82c-0.02,0.22,0.02,0.45,0.12,0.65c0.09,0.13,0.24,0.19,0.4,0.18
			c0.12,0,0.23-0.02,0.34-0.06c0.1-0.03,0.2-0.09,0.27-0.17l0.61,1.1c-0.41,0.27-0.89,0.41-1.38,0.4
			C127.05,104.15,126.6,103.98,126.26,103.66z"/>
	</g>
</g>
<g id="_23_Minuten_Pause">
	<g>
		<path fill="#FFA55F" d="M162.71,101.35l-0.19,0.09c-0.31,0.16-0.53,0.3-0.69,0.4c-0.16,0.1-0.29,0.23-0.4,0.38
			c-0.12,0.15-0.19,0.33-0.22,0.52h3.74v1.32h-5.17v-0.77c-0.01-0.47,0.09-0.93,0.31-1.35c0.18-0.36,0.45-0.68,0.77-0.92
			c0.33-0.25,0.69-0.48,1.06-0.66l0.48-0.26c0.23-0.12,0.45-0.26,0.66-0.41c0.16-0.13,0.3-0.28,0.41-0.45
			c0.1-0.17,0.15-0.36,0.15-0.56c0.02-0.31-0.09-0.61-0.3-0.83c-0.22-0.21-0.52-0.32-0.82-0.31c-0.28-0.01-0.56,0.08-0.78,0.25
			c-0.2,0.15-0.35,0.36-0.44,0.59c-0.08,0.21-0.12,0.43-0.11,0.66h-1.38c-0.02-0.43,0.06-0.85,0.25-1.24
			c0.21-0.45,0.53-0.85,0.93-1.14c0.44-0.32,0.98-0.48,1.52-0.46c0.68-0.03,1.34,0.2,1.84,0.66c0.47,0.46,0.71,1.1,0.68,1.76
			c0.01,0.35-0.07,0.69-0.23,1c-0.15,0.28-0.35,0.53-0.59,0.75c-0.25,0.23-0.53,0.44-0.82,0.61l-0.23,0.15l-0.23,0.12
			C162.85,101.29,162.78,101.33,162.71,101.35z"/>
		<path fill="#FFA55F" d="M167.75,102.48c0.27,0.2,0.61,0.3,0.95,0.28c0.33,0.01,0.65-0.11,0.9-0.33c0.24-0.22,0.37-0.55,0.35-0.88
			c0-0.21-0.06-0.41-0.19-0.57c-0.14-0.18-0.32-0.32-0.53-0.42c-0.23-0.1-0.47-0.15-0.72-0.15h-0.56v-1h0.54
			c0.33,0.02,0.66-0.07,0.93-0.26c0.22-0.17,0.34-0.44,0.33-0.72c0.02-0.27-0.1-0.53-0.32-0.69c-0.22-0.16-0.49-0.25-0.76-0.24
			c-0.29-0.02-0.58,0.05-0.82,0.21c-0.2,0.14-0.31,0.39-0.27,0.63h-1.39c0-0.4,0.1-0.79,0.31-1.13c0.2-0.34,0.5-0.6,0.86-0.76
			c0.41-0.19,0.86-0.28,1.31-0.27c0.42,0,0.84,0.1,1.22,0.29c0.36,0.19,0.67,0.46,0.91,0.79c0.22,0.32,0.34,0.69,0.34,1.08
			c0,0.26-0.05,0.51-0.16,0.74c-0.1,0.23-0.24,0.44-0.43,0.6c-0.17,0.16-0.39,0.26-0.62,0.3v-0.1c0.25,0.03,0.49,0.13,0.69,0.29
			c0.22,0.17,0.39,0.38,0.51,0.63c0.13,0.25,0.19,0.52,0.19,0.8c0,0.43-0.12,0.86-0.35,1.23c-0.25,0.39-0.59,0.71-1,0.92
			c-0.41,0.23-0.88,0.35-1.35,0.35c-0.48,0.01-0.95-0.1-1.38-0.31c-0.38-0.19-0.7-0.49-0.93-0.85c-0.21-0.37-0.31-0.8-0.26-1.22
			h1.33C167.35,102.02,167.5,102.31,167.75,102.48z"/>
		<path fill="#FFA55F" d="M175.7,95.6h1.73l2.9,6.13h-0.22l2.86-6.13h1.74v8.4h-1.44v-6.18h0.2l-2.52,5.28h-1.46l-2.54-5.28h0.2V104
			h-1.43L175.7,95.6z"/>
		<path fill="#FFA55F" d="M186.03,96.88c-0.17-0.16-0.26-0.39-0.25-0.62c-0.01-0.23,0.08-0.46,0.25-0.62
			c0.34-0.34,0.89-0.35,1.23-0.01c0,0,0.01,0.01,0.01,0.01c0.17,0.16,0.27,0.39,0.26,0.62c0,0.49-0.4,0.88-0.88,0.88
			C186.41,97.13,186.19,97.04,186.03,96.88z M187.35,98v6h-1.4v-6H187.35z"/>
		<path fill="#FFA55F" d="M190.2,99.02l-0.33-0.2l0,0c0,0,0,0,0-0.05c0.16-0.24,0.36-0.46,0.59-0.63c0.33-0.19,0.7-0.28,1.08-0.25
			c0.65-0.03,1.28,0.23,1.72,0.71c0.47,0.54,0.72,1.24,0.69,1.95v3.5h-1.39v-3c0.03-0.48-0.07-0.97-0.29-1.4
			c-0.18-0.3-0.51-0.47-0.85-0.45c-0.36-0.03-0.71,0.12-0.94,0.4c-0.23,0.36-0.34,0.78-0.31,1.21v3.26h-1.39v-6h1.17L190.2,99.02z"
			/>
		<path fill="#FFA55F" d="M198.88,102.97l0.33,0.21l0,0l0,0c-0.17,0.25-0.38,0.47-0.62,0.65c-0.33,0.19-0.72,0.28-1.1,0.25
			c-0.65,0.03-1.28-0.23-1.72-0.71c-0.45-0.54-0.68-1.23-0.64-1.93v-3.5h1.39v3c-0.03,0.48,0.06,0.97,0.28,1.4
			c0.19,0.29,0.51,0.46,0.86,0.45c0.36,0.03,0.71-0.12,0.94-0.4c0.23-0.36,0.34-0.78,0.31-1.21v-3.26h1.39v6h-1.16L198.88,102.97z"
			/>
		<path fill="#FFA55F" d="M202.42,103.66c-0.32-0.39-0.49-0.88-0.46-1.38v-3.06h-1V98c0.26,0.03,0.53-0.04,0.74-0.2
			c0.19-0.18,0.29-0.43,0.28-0.69v-1h1.34v1.88h1.11v1.22h-1.11v2.82c-0.02,0.22,0.02,0.45,0.12,0.65c0.09,0.13,0.24,0.2,0.39,0.18
			c0.12,0,0.23-0.02,0.34-0.06c0.1-0.03,0.2-0.09,0.27-0.17l0.61,1.1c-0.41,0.27-0.89,0.41-1.38,0.4
			C203.21,104.15,202.76,103.98,202.42,103.66z"/>
		<path fill="#FFA55F" d="M207.09,102.15c0.13,0.21,0.32,0.37,0.54,0.48c0.22,0.11,0.46,0.17,0.7,0.17
			c0.33,0.01,0.65-0.08,0.93-0.25c0.26-0.16,0.45-0.41,0.55-0.7l1.28,0.43c-0.19,0.57-0.56,1.05-1.06,1.38
			c-0.51,0.32-1.1,0.49-1.7,0.48c-0.53,0.01-1.04-0.14-1.49-0.42c-0.44-0.28-0.81-0.67-1.05-1.14c-0.26-0.5-0.39-1.06-0.38-1.62
			c-0.01-0.55,0.12-1.09,0.38-1.57c0.25-0.46,0.61-0.84,1.05-1.12c0.45-0.28,0.96-0.42,1.49-0.41c1.07-0.02,2.05,0.56,2.54,1.51
			c0.25,0.49,0.39,1.04,0.39,1.59v0.46h-4.46C206.84,101.68,206.94,101.93,207.09,102.15z M207.38,99.52
			c-0.27,0.22-0.47,0.52-0.56,0.86h3c-0.09-0.34-0.28-0.64-0.56-0.86c-0.57-0.42-1.34-0.42-1.91,0H207.38z"/>
		<path fill="#FFA55F" d="M213.71,99.02l-0.34-0.2l0,0c0,0,0,0,0-0.05c0.15-0.24,0.35-0.46,0.58-0.63c0.33-0.19,0.7-0.28,1.08-0.25
			c0.65-0.04,1.29,0.23,1.73,0.71c0.45,0.54,0.67,1.23,0.64,1.93v3.5H216v-3c0.03-0.48-0.06-0.97-0.28-1.4
			c-0.18-0.3-0.51-0.47-0.85-0.45c-0.36-0.03-0.71,0.12-0.94,0.4c-0.23,0.36-0.34,0.78-0.31,1.21v3.26h-1.4v-6h1.17L213.71,99.02z"
			/>
		<path fill="#FFA55F" d="M226.26,95.92c0.37,0.21,0.69,0.53,0.9,0.9c0.22,0.4,0.34,0.85,0.33,1.3c0.01,0.45-0.11,0.9-0.33,1.29
			c-0.21,0.37-0.53,0.69-0.9,0.9c-0.39,0.22-0.84,0.34-1.29,0.33h-1.62V104h-1.4v-8.4h3C225.41,95.59,225.86,95.7,226.26,95.92z
			 M225.83,98.99c0.45-0.49,0.45-1.25,0-1.74c-0.24-0.23-0.57-0.34-0.9-0.33h-1.58v2.4h1.6C225.28,99.33,225.59,99.21,225.83,98.99z
			"/>
		<path fill="#FFA55F" d="M233.28,102.71c0.02,0.07,0.08,0.13,0.15,0.15c0.1,0.01,0.21,0.01,0.31,0h0.08v1.12h-0.65
			c-0.28,0-0.56-0.09-0.78-0.27c-0.23-0.19-0.39-0.45-0.45-0.74h0.34c-0.1,0.34-0.32,0.62-0.63,0.8c-0.33,0.21-0.71,0.32-1.1,0.31
			c-0.44,0.01-0.87-0.08-1.27-0.25c-0.35-0.15-0.64-0.4-0.85-0.72c-0.2-0.32-0.3-0.7-0.3-1.08c-0.03-0.49,0.19-0.97,0.59-1.26
			c0.42-0.29,0.91-0.47,1.42-0.51c0.57-0.07,1.16-0.07,1.73,0v-0.38c-0.01-0.13-0.05-0.26-0.13-0.36c-0.11-0.12-0.25-0.22-0.4-0.28
			c-0.19-0.08-0.4-0.11-0.61-0.11c-0.25,0-0.49,0.07-0.7,0.2c-0.21,0.13-0.36,0.33-0.43,0.56l-1.24-0.4
			c0.12-0.5,0.42-0.95,0.84-1.25c0.45-0.32,0.99-0.49,1.54-0.47c0.48-0.01,0.96,0.1,1.38,0.33c0.34,0.19,0.62,0.46,0.83,0.78
			c0.16,0.25,0.25,0.53,0.27,0.82v2.51C233.2,102.38,233.22,102.55,233.28,102.71z M230.12,101.55c-0.41,0.09-0.62,0.28-0.62,0.57
			c-0.02,0.36,0.23,0.68,0.58,0.75c0.4,0.1,0.82,0.05,1.19-0.14c0.34-0.11,0.58-0.42,0.6-0.78v-0.4
			C231.29,101.44,230.7,101.44,230.12,101.55z"/>
		<path fill="#FFA55F" d="M238.42,102.97l0.33,0.21l0,0l0,0c-0.17,0.25-0.38,0.47-0.62,0.65c-0.33,0.19-0.72,0.28-1.1,0.25
			c-0.65,0.03-1.28-0.23-1.72-0.71c-0.45-0.54-0.68-1.23-0.64-1.93v-3.5h1.39v3c-0.03,0.48,0.06,0.97,0.28,1.4
			c0.19,0.29,0.51,0.46,0.86,0.45c0.36,0.03,0.71-0.12,0.94-0.4c0.23-0.36,0.34-0.78,0.31-1.21v-3.26h1.39v6h-1.19L238.42,102.97z"
			/>
		<path fill="#FFA55F" d="M241.68,103.55L241.68,103.55L241.68,103.55c-0.21-0.22-0.39-0.47-0.53-0.75c-0.14-0.31-0.19-0.66-0.15-1
			h1.36c-0.05,0.29,0.05,0.58,0.25,0.79c0.25,0.21,0.57,0.31,0.89,0.29c0.27,0.01,0.54-0.04,0.79-0.16c0.18-0.07,0.29-0.24,0.3-0.43
			c0.01-0.13-0.04-0.26-0.14-0.35c-0.13-0.1-0.29-0.17-0.45-0.21l-1.1-0.25h-0.07h-0.06c-0.45-0.06-0.87-0.26-1.2-0.58
			c-0.26-0.31-0.39-0.71-0.37-1.12c-0.02-0.52,0.2-1.03,0.61-1.36c0.47-0.36,1.06-0.54,1.65-0.51c0.55-0.03,1.1,0.12,1.56,0.43
			c0.41,0.35,0.69,0.84,0.8,1.37l-1.22,0.4c-0.05-0.28-0.19-0.53-0.39-0.73c-0.21-0.15-0.46-0.22-0.72-0.2
			c-0.25-0.02-0.49,0.04-0.7,0.17c-0.16,0.09-0.25,0.27-0.25,0.45c-0.01,0.15,0.03,0.3,0.12,0.42c0.13,0.11,0.28,0.18,0.45,0.21
			h0.17c0.56,0.12,1.12,0.28,1.67,0.46c0.29,0.09,0.55,0.27,0.75,0.5c0.18,0.27,0.26,0.58,0.24,0.9c0.01,0.36-0.1,0.71-0.32,1
			c-0.22,0.3-0.51,0.53-0.85,0.67c-0.39,0.16-0.8,0.25-1.22,0.24C242.87,104.22,242.2,103.99,241.68,103.55z"/>
		<path fill="#FFA55F" d="M248.46,102.15c0.28,0.41,0.75,0.66,1.25,0.65c0.32,0.01,0.65-0.08,0.92-0.25
			c0.26-0.16,0.46-0.41,0.56-0.7l1.28,0.43c-0.19,0.57-0.57,1.05-1.07,1.38c-0.5,0.33-1.09,0.49-1.69,0.48
			c-0.53,0.01-1.04-0.14-1.49-0.42c-0.43-0.28-0.77-0.68-1-1.14c-0.26-0.5-0.4-1.06-0.39-1.62c-0.01-0.55,0.13-1.09,0.39-1.57
			c0.23-0.45,0.57-0.84,1-1.12c0.45-0.28,0.96-0.42,1.49-0.41c1.06-0.02,2.05,0.57,2.54,1.51c0.25,0.49,0.39,1.04,0.39,1.59v0.46
			h-4.47C248.21,101.68,248.31,101.93,248.46,102.15z M248.76,99.52c-0.27,0.22-0.47,0.52-0.56,0.86h3
			c-0.08-0.34-0.28-0.64-0.55-0.86c-0.28-0.22-0.64-0.34-1-0.32c-0.33,0.02-0.64,0.14-0.89,0.35V99.52z"/>
	</g>
</g>
<g id="_30">
	<g>
		<path fill="#2D96FF" d="M161.15,86.48c0.27,0.2,0.61,0.3,0.95,0.28c0.33,0.01,0.65-0.11,0.9-0.33c0.24-0.21,0.37-0.52,0.36-0.84
			c0-0.2-0.07-0.4-0.19-0.57c-0.14-0.18-0.32-0.32-0.52-0.42c-0.23-0.1-0.48-0.15-0.73-0.15h-0.55v-1h0.58
			c0.33,0.02,0.66-0.07,0.93-0.26c0.22-0.17,0.34-0.44,0.33-0.72c0.02-0.27-0.1-0.53-0.32-0.69c-0.22-0.16-0.49-0.25-0.76-0.24
			c-0.29-0.02-0.58,0.06-0.82,0.21c-0.2,0.14-0.31,0.38-0.28,0.63h-1.37c-0.01-0.4,0.09-0.79,0.29-1.13
			c0.21-0.33,0.51-0.6,0.87-0.76c0.41-0.19,0.86-0.28,1.31-0.27c0.42,0,0.84,0.1,1.21,0.29c0.37,0.18,0.68,0.46,0.92,0.79
			c0.22,0.32,0.34,0.69,0.34,1.08c0,0.26-0.05,0.51-0.16,0.74c-0.09,0.23-0.24,0.44-0.43,0.6c-0.17,0.16-0.39,0.26-0.62,0.3v-0.1
			c0.25,0.03,0.49,0.13,0.69,0.29c0.22,0.17,0.39,0.38,0.51,0.63c0.12,0.25,0.19,0.52,0.19,0.8c0,0.43-0.12,0.86-0.35,1.23
			c-0.23,0.38-0.56,0.7-0.95,0.92c-0.41,0.23-0.88,0.35-1.35,0.35c-0.48,0.01-0.95-0.1-1.38-0.31c-0.38-0.19-0.7-0.49-0.93-0.85
			c-0.21-0.37-0.31-0.8-0.26-1.22h1.33C160.85,86.03,160.95,86.3,161.15,86.48z"/>
		<path fill="#2D96FF" d="M170.8,80.73c0.5,0.38,0.9,0.88,1.15,1.46c0.27,0.63,0.41,1.31,0.41,2c0.01,0.69-0.13,1.37-0.41,2
			c-0.25,0.56-0.64,1.05-1.14,1.4c-0.48,0.34-1.05,0.51-1.64,0.51c-0.61,0.01-1.2-0.17-1.7-0.52c-0.51-0.35-0.92-0.84-1.18-1.41
			c-0.3-0.62-0.45-1.31-0.44-2c0-0.69,0.15-1.37,0.44-2c0.27-0.58,0.68-1.09,1.2-1.46c0.49-0.35,1.08-0.54,1.68-0.54
			C169.76,80.18,170.33,80.37,170.8,80.73z M168.17,81.9c-0.33,0.27-0.58,0.61-0.75,1c-0.19,0.41-0.28,0.86-0.28,1.31
			c0,0.44,0.09,0.88,0.27,1.29c0.15,0.39,0.41,0.74,0.74,1c0.28,0.23,0.64,0.36,1,0.36c0.36,0.01,0.72-0.11,1-0.34
			c0.3-0.26,0.53-0.58,0.68-0.95c0.17-0.42,0.26-0.87,0.25-1.32c0-0.46-0.09-0.91-0.26-1.33c-0.15-0.38-0.39-0.73-0.7-1
			c-0.25-0.23-0.58-0.37-0.93-0.37C168.82,81.54,168.46,81.67,168.17,81.9z"/>
	</g>
</g>
<line id="Linie_94" fill="none" stroke="#E5FFFC" stroke-width="2" stroke-linecap="round" x1="159" y1="105.3" x2="172" y2="96.88"/>
<line id="Linie_95" fill="none" stroke="#2D96FF" stroke-width="2" stroke-linecap="round" x1="159" y1="104.3" x2="172" y2="95.88"/>
<line id="Linie_96" fill="none" stroke="#5A7980" stroke-width="1.5" stroke-linecap="round" x1="139.83" y1="99.94" x2="147.22" y2="99.94"/>
<path id="Pfad_70" fill="none" stroke="#5A7980" stroke-width="1.5" stroke-linecap="round" stroke-linejoin="round" d="
	M145.47,96.39l3.15,3.62l-3.15,3.6"/>
</svg>
