<?xml version="1.0" encoding="utf-8"?>
<!-- Generator: Adobe Illustrator 25.0.0, SVG Export Plug-In . SVG Version: 6.00 Build 0)  -->
<svg version="1.2" baseProfile="tiny" id="Ebene_1" xmlns="http://www.w3.org/2000/svg" x="0px" y="0px" viewBox="0 0 61.84 76.93" overflow="visible" xml:space="preserve">
<g transform="translate(-278.023 -475.905)">
	
		<ellipse transform="matrix(0.9999 -0.017 0.017 0.9999 -8.8314 5.3274)" fill="#0ee796" cx="308.95" cy="522.14" rx="30.4" ry="30.21"/>
	<path fill="#0ee796" d="M292.53,479.59l18.86-2.99c2.44-0.39,4.74,1.28,5.13,3.73l0,0c0.39,2.44-1.28,4.74-3.73,5.13l-18.86,2.99
		c-2.44,0.39-4.74-1.28-5.13-3.73l0,0C288.41,482.28,290.08,479.98,292.53,479.59z"/>
	<ellipse fill="#FFFFFF" cx="321.37" cy="513.61" rx="3.61" ry="3.61"/>
	<ellipse fill="#FFFFFF" cx="295.84" cy="514.05" rx="3.61" ry="3.61"/>
	<path fill="none" stroke="#FFFFFF" stroke-width="5" stroke-linecap="round" stroke-miterlimit="10.0014" d="M300.9,526.47
		c4.67,3.23,12.4,2.98,16.37-0.28"/>
</g>
</svg>
